<?xml version="1.0" encoding="UTF-8" standalone="no"?>
<!-- Created with Inkscape (http://www.inkscape.org/) -->

<svg
   width="200mm"
   height="200mm"
   viewBox="0 0 200 200"
   version="1.1"
   id="svg5"
   xml:space="preserve"
   inkscape:version="1.2.2 (732a01da63, 2022-12-09)"
   sodipodi:docname="goblin.svg"
   xmlns:inkscape="http://www.inkscape.org/namespaces/inkscape"
   xmlns:sodipodi="http://sodipodi.sourceforge.net/DTD/sodipodi-0.dtd"
   xmlns="http://www.w3.org/2000/svg"
   xmlns:svg="http://www.w3.org/2000/svg"><sodipodi:namedview
     id="namedview7"
     pagecolor="#505050"
     bordercolor="#eeeeee"
     borderopacity="1"
     inkscape:showpageshadow="0"
     inkscape:pageopacity="0"
     inkscape:pagecheckerboard="0"
     inkscape:deskcolor="#505050"
     inkscape:document-units="mm"
     showgrid="false"
     inkscape:zoom="0.5"
     inkscape:cx="505"
     inkscape:cy="101"
     inkscape:window-width="2560"
     inkscape:window-height="1411"
     inkscape:window-x="-9"
     inkscape:window-y="-9"
     inkscape:window-maximized="1"
     inkscape:current-layer="layer1" /><defs
     id="defs2" /><g
     inkscape:label="Layer 1"
     inkscape:groupmode="layer"
     id="layer1"><g
       id="g1228"
       transform="translate(178.45261,-0.72159865)"><path
         style="fill:#d8e87e;stroke-width:3.62946"
         d="m -108.02515,184.19926 c 0,-3.99241 1.63326,-7.25893 3.62946,-7.25893 6.708822,0 3.84943,-20.01577 -3.62946,-25.40624 -7.47888,-5.39048 -10.33828,-25.40625 -3.62946,-25.40625 1.9962,0 3.62946,-4.76367 3.62946,-10.58593 0,-5.82227 2.04157,-11.31878 4.53683,-12.21448 3.03277,-1.08864 1.64541,-4.197026 -4.18481,-9.376111 l -8.72163,-7.747576 8.16056,-7.077614 8.16055,-7.077617 -9.25497,-9.254969 c -5.09023,-5.090236 -11.7791,-9.254973 -14.86414,-9.254973 -8.019,0 -6.93152,-11.962284 1.64976,-18.147318 3.99241,-2.877566 7.25892,-8.137899 7.25892,-11.689628 0,-4.755568 2.86997,-6.457689 10.88839,-6.457689 5.98862,0 10.888396,-1.633259 10.888396,-3.629464 0,-1.996205 4.899776,-3.6294637 10.88839,-3.6294637 5.988615,0 10.888391,1.6332587 10.888391,3.6294637 0,1.996205 2.524129,3.629464 5.609173,3.629464 7.260629,0 23.426536,16.165908 23.426536,23.426537 0,3.189529 3.131301,5.609171 7.258927,5.609171 4.839283,0 7.258927,2.419644 7.258927,7.258927 0,3.99241 -1.633259,7.258928 -3.629464,7.258928 -1.996205,0 -3.629463,4.763671 -3.629463,10.585936 0,5.822263 -2.041573,11.318777 -4.53683,12.214474 -3.077393,1.104656 -1.909845,3.965886 3.629464,8.894465 15.981283,14.219287 9.868243,62.671177 -7.907044,62.671177 -3.136895,0 -5.703444,1.63326 -5.703444,3.62946 0,1.99621 1.633258,3.62947 3.629463,3.62947 1.996205,0 3.629464,6.53303 3.629464,14.51785 v 14.51786 h -32.665172 c -30.245534,0 -32.665174,-0.5377 -32.665174,-7.25893 z"
         id="path1258" /><path
         style="fill:#e49575;stroke-width:3.62946"
         d="m -108.02515,184.19926 c 0,-3.99241 1.63326,-7.25893 3.62946,-7.25893 6.708822,0 3.84943,-20.01577 -3.62946,-25.40624 -7.47888,-5.39048 -10.33828,-25.40625 -3.62946,-25.40625 1.9962,0 3.62946,-4.76367 3.62946,-10.58593 0,-5.82227 2.04157,-11.31878 4.53683,-12.21448 3.04493,-1.093 1.72094,-4.131035 -4.02624,-9.238583 -7.97208,-7.084844 -8.14802,-8.025093 -2.54926,-13.623852 3.30759,-3.307592 7.11367,-4.913931 8.45795,-3.569647 1.34429,1.344288 0.0889,3.899805 -2.78982,5.678931 -2.87868,1.779127 -3.96752,4.501225 -2.41964,6.049108 1.54789,1.547882 4.48313,0.41174 6.52277,-2.524753 2.806248,-4.040199 4.156277,-4.23537 5.549304,-0.802257 2.464325,6.07333 11.432373,5.747303 17.827797,-0.648117 5.948255,-5.948259 6.946093,-16.591835 1.555483,-16.591835 -1.996205,0 -3.629464,3.266517 -3.629464,7.258927 0,11.497676 -10.179259,8.589314 -25.40625,-7.258927 -7.67181,-7.98482 -16.52668,-14.517855 -19.67749,-14.517855 -8.11656,0 -7.11158,-11.918692 1.53018,-18.147318 3.99241,-2.877566 7.25892,-8.137899 7.25892,-11.689628 0,-4.755568 2.86997,-6.457689 10.88839,-6.457689 5.98862,0 10.888396,-1.633259 10.888396,-3.629464 0,-1.996205 4.899776,-3.6294637 10.88839,-3.6294637 5.988615,0 10.888391,1.6332587 10.888391,3.6294637 0,1.996205 2.524129,3.629464 5.609173,3.629464 7.260629,0 23.426536,16.165908 23.426536,23.426537 0,3.189529 3.131301,5.609171 7.258927,5.609171 4.839283,0 7.258927,2.419644 7.258927,7.258927 0,3.99241 -1.633259,7.258928 -3.629464,7.258928 -1.996205,0 -3.629463,4.763671 -3.629463,10.585936 0,5.822263 -2.041573,11.318777 -4.53683,12.214474 -3.077393,1.104656 -1.909845,3.965886 3.629464,8.894465 15.981283,14.219287 9.868243,62.671177 -7.907044,62.671177 -3.136895,0 -5.703444,1.63326 -5.703444,3.62946 0,1.99621 1.633258,3.62947 3.629463,3.62947 1.996205,0 3.629464,6.53303 3.629464,14.51785 v 14.51786 h -32.665172 c -30.245534,0 -32.665174,-0.5377 -32.665174,-7.25893 z m 7.25893,-47.18303 c 0,-5.98861 -1.63326,-10.88839 -3.62947,-10.88839 -1.9962,0 -3.62946,4.89978 -3.62946,10.88839 0,5.98862 1.63326,10.88839 3.62946,10.88839 1.99621,0 3.62947,-4.89977 3.62947,-10.88839 z m 52.886469,-1.55548 c 7.033447,-7.03345 6.522455,-9.33291 -2.07398,-9.33291 -4.839284,0 -7.258928,2.41965 -7.258928,7.25893 0,8.59644 2.299462,9.10743 9.332908,2.07398 z m 5.184947,-63.472407 c 0,-1.829853 -2.041574,-4.155399 -4.53683,-5.167881 -3.433113,-1.393025 -3.237942,-2.743054 0.802257,-5.549305 2.936494,-2.039639 4.239213,-4.808302 2.894929,-6.15259 -5.311205,-5.311205 -14.38919,8.834107 -9.340577,14.554483 5.405567,6.124821 10.180221,7.210724 10.180221,2.315293 z M -71.730513,58.723517 c 0,-1.140686 -2.527664,-4.601641 -5.617027,-7.691004 -7.087144,-7.087144 -11.344995,-3.536967 -4.730138,3.943964 4.957027,5.606048 10.347165,7.557988 10.347165,3.74704 z"
         id="path1256" /><path
         style="fill:#a8ca59;stroke-width:3.62946"
         d="m -108.02515,184.19926 c 0,-3.99241 1.63326,-7.25893 3.62946,-7.25893 6.708822,0 3.84943,-20.01577 -3.62946,-25.40624 -7.47888,-5.39048 -10.33828,-25.40625 -3.62946,-25.40625 1.9962,0 3.62946,-4.76367 3.62946,-10.58593 0,-5.82227 2.04157,-11.31878 4.53683,-12.21448 3.04493,-1.093 1.72094,-4.131035 -4.02624,-9.238583 -7.97208,-7.084844 -8.14802,-8.025093 -2.54926,-13.623852 3.30759,-3.307592 7.11367,-4.913931 8.45795,-3.569647 1.34429,1.344288 0.0889,3.899805 -2.78982,5.678931 -2.87868,1.779127 -3.96752,4.501225 -2.41964,6.049108 1.54789,1.547882 4.48313,0.41174 6.52277,-2.524753 2.806248,-4.040199 4.156277,-4.23537 5.549304,-0.802257 2.464325,6.07333 11.432373,5.747303 17.827797,-0.648117 5.948255,-5.948259 6.946093,-16.591835 1.555483,-16.591835 -1.996205,0 -3.629464,3.266517 -3.629464,7.258927 0,11.497676 -10.179259,8.589314 -25.40625,-7.258927 -7.67181,-7.98482 -16.52668,-14.517855 -19.67749,-14.517855 -8.11656,0 -7.11158,-11.918692 1.53018,-18.147318 3.99241,-2.877566 7.25892,-8.137899 7.25892,-11.689628 0,-4.755568 2.86997,-6.457689 10.88839,-6.457689 5.98862,0 10.888396,-1.633259 10.888396,-3.629464 0,-1.996205 4.899776,-3.6294637 10.88839,-3.6294637 5.988615,0 10.888391,1.6332587 10.888391,3.6294637 0,1.996205 2.524129,3.629464 5.609173,3.629464 7.260629,0 23.426536,16.165908 23.426536,23.426537 0,3.189529 3.131301,5.609171 7.258927,5.609171 4.839283,0 7.258927,2.419644 7.258927,7.258927 0,3.99241 -1.633259,7.258928 -3.629464,7.258928 -1.996205,0 -3.629463,4.899776 -3.629463,10.888391 0,5.988614 -1.633259,10.88839 -3.629464,10.88839 -1.996205,0 -3.629463,-3.130412 -3.629463,-6.956473 0,-3.826057 -2.041574,-7.784862 -4.53683,-8.797344 -3.433113,-1.393025 -3.237942,-2.743054 0.802257,-5.549305 2.936494,-2.039639 4.239213,-4.808302 2.894929,-6.15259 -1.344288,-1.344285 -5.365552,0.477238 -8.936142,4.047832 -4.634851,4.63485 -5.203428,6.921506 -1.987563,7.993461 2.477431,0.825812 4.504422,3.976608 4.504422,7.001773 0,3.025161 4.899775,10.077369 10.88839,15.671574 18.444597,17.229833 14.627098,65.330343 -5.184946,65.330343 -3.136895,0 -5.703444,1.63326 -5.703444,3.62946 0,1.99621 1.633258,3.62947 3.629463,3.62947 1.996205,0 3.629464,6.53303 3.629464,14.51785 v 14.51786 h -32.665172 c -30.245534,0 -32.665174,-0.5377 -32.665174,-7.25893 z m 7.25893,-47.18303 c 0,-5.98861 -1.63326,-10.88839 -3.62947,-10.88839 -1.9962,0 -3.62946,4.89978 -3.62946,10.88839 0,5.98862 1.63326,10.88839 3.62946,10.88839 1.99621,0 3.62947,-4.89977 3.62947,-10.88839 z m 52.886469,-1.55548 c 7.033447,-7.03345 6.522455,-9.33291 -2.07398,-9.33291 -4.839284,0 -7.258928,2.41965 -7.258928,7.25893 0,8.59644 2.299462,9.10743 9.332908,2.07398 z M -71.730513,58.723517 c 0,-1.140686 -2.527664,-4.601641 -5.617027,-7.691004 -7.087144,-7.087144 -11.344995,-3.536967 -4.730138,3.943964 4.957027,5.606048 10.347165,7.557988 10.347165,3.74704 z m -14.517854,-21.77678 c 0,-1.140689 -2.333226,-4.407206 -5.184947,-7.258927 -5.94826,-5.948259 -16.591836,-6.946094 -16.591836,-1.555485 0,1.996205 3.26652,3.629464 7.25893,3.629464 3.992409,0 7.258926,1.633259 7.258926,3.629463 0,1.996205 1.633258,3.629464 3.629463,3.629464 1.996205,0 3.629464,-0.933291 3.629464,-2.073979 z"
         id="path1254" /><path
         style="fill:#b2937a;stroke-width:3.62946"
         d="m -108.02515,184.19926 c 0,-3.99241 1.63326,-7.25893 3.62946,-7.25893 6.708822,0 3.84943,-20.01577 -3.62946,-25.40624 -7.47888,-5.39048 -10.33828,-25.40625 -3.62946,-25.40625 1.9962,0 3.62946,-4.76367 3.62946,-10.58593 0,-5.82227 2.04157,-11.31878 4.53683,-12.21448 3.03277,-1.08864 1.64541,-4.197026 -4.18481,-9.376111 l -8.72163,-7.747576 8.16056,-7.077614 8.16055,-7.077617 -9.25497,-9.254969 c -5.09023,-5.090236 -11.7791,-9.254973 -14.86414,-9.254973 -8.019,0 -6.93152,-11.962284 1.64976,-18.147318 3.99241,-2.877566 7.25892,-8.137899 7.25892,-11.689628 0,-4.755568 2.86997,-6.457689 10.88839,-6.457689 5.98862,0 10.888396,-1.633259 10.888396,-3.629464 0,-1.996205 4.899776,-3.6294637 10.88839,-3.6294637 5.988615,0 10.888391,1.6332587 10.888391,3.6294637 0,1.996205 2.524129,3.629464 5.609173,3.629464 7.260629,0 23.426536,16.165908 23.426536,23.426537 0,3.189529 3.131301,5.609171 7.258927,5.609171 4.839283,0 7.258927,2.419644 7.258927,7.258927 0,3.99241 -1.633259,7.258928 -3.629464,7.258928 -1.996205,0 -3.629463,4.899776 -3.629463,10.888391 0,5.988614 -1.633259,10.88839 -3.629464,10.88839 -1.996205,0 -3.629463,-3.266517 -3.629463,-7.258927 0,-3.99241 -1.633259,-7.258927 -3.629464,-7.258927 -1.996205,0 -3.629463,-1.633259 -3.629463,-3.629464 0,-1.996205 3.266517,-3.629463 7.258927,-3.629463 3.99241,0 7.258927,-1.633259 7.258927,-3.629464 0,-5.733278 -10.806801,-4.229552 -17.466794,2.430445 -4.406894,4.406895 -4.831197,6.469479 -1.555482,7.561381 2.477431,0.825812 4.504422,3.976608 4.504422,7.001773 0,3.025161 4.899775,10.077369 10.88839,15.671574 18.444597,17.229833 14.627098,65.330343 -5.184946,65.330343 -3.136895,0 -5.703444,1.63326 -5.703444,3.62946 0,1.99621 1.633258,3.62947 3.629463,3.62947 1.996205,0 3.629464,6.53303 3.629464,14.51785 v 14.51786 h -32.665172 c -30.245534,0 -32.665174,-0.5377 -32.665174,-7.25893 z m 43.553564,-18.14732 c 0,-1.9962 -3.266517,-3.62946 -7.258927,-3.62946 -3.99241,0 -7.258927,1.63326 -7.258927,3.62946 0,1.99621 3.266517,3.62947 7.258927,3.62947 3.99241,0 7.258927,-1.63326 7.258927,-3.62947 z m -36.294634,-29.03571 c 0,-5.98861 -1.63326,-10.88839 -3.62947,-10.88839 -1.9962,0 -3.62946,4.89978 -3.62946,10.88839 0,5.98862 1.63326,10.88839 3.62946,10.88839 1.99621,0 3.62947,-4.89977 3.62947,-10.88839 z m 65.330343,7.25893 c 0,-1.9962 -1.633259,-3.62946 -3.629464,-3.62946 -1.996205,0 -3.629463,-4.89978 -3.629463,-10.88839 0,-12.17736 -1.774547,-13.26181 -9.332908,-5.70345 -9.939141,9.93915 -6.612451,23.85076 5.703444,23.85076 5.988615,0 10.888391,-1.63325 10.888391,-3.62946 z M -65.736399,87.798507 c 5.111493,-5.111493 8.080173,-10.419583 6.597061,-11.795756 -1.483111,-1.376173 -3.425698,-0.460557 -4.316862,2.034699 -2.558605,7.164096 -8.274313,5.283733 -8.274313,-2.722098 0,-3.99241 -1.633258,-7.258927 -3.629463,-7.258927 -1.996205,0 -3.629464,3.266517 -3.629464,7.258927 0,3.99241 -1.633259,7.258927 -3.629464,7.258927 -1.996205,0 -3.629463,-1.633258 -3.629463,-3.629463 0,-5.39061 -10.643575,-4.392773 -16.591833,1.555483 -7.03345,7.033446 -6.52246,9.332908 2.07398,9.332908 3.992409,0 7.258926,1.633258 7.258926,3.629463 0,7.22447 18.695377,3.411355 27.770895,-5.664163 z m -5.994114,-29.07499 c 0,-1.140686 -2.527664,-4.601641 -5.617027,-7.691004 -7.087144,-7.087144 -11.344995,-3.536967 -4.730138,3.943964 4.957027,5.606048 10.347165,7.557988 10.347165,3.74704 z m -14.517854,-21.77678 c 0,-1.140689 -2.333226,-4.407206 -5.184947,-7.258927 -5.94826,-5.948259 -16.591836,-6.946094 -16.591836,-1.555485 0,1.996205 3.26652,3.629464 7.25893,3.629464 3.992409,0 7.258926,1.633259 7.258926,3.629463 0,1.996205 1.633258,3.629464 3.629463,3.629464 1.996205,0 3.629464,-0.933291 3.629464,-2.073979 z"
         id="path1252" /><path
         style="fill:#bf6493;stroke-width:3.62946"
         d="m -108.02515,184.19926 c 0,-8.00583 5.71571,-9.88619 8.274314,-2.7221 0.942454,2.63887 2.966943,3.19018 4.839285,1.31784 1.872341,-1.87234 1.321031,-3.89683 -1.317841,-4.83928 -2.495256,-0.89117 -4.536828,-6.02341 -4.536828,-11.405 0,-5.62107 -3.08885,-12.01101 -7.25893,-15.01663 -7.47888,-5.39048 -10.33828,-25.40625 -3.62946,-25.40625 1.9962,0 3.62946,-4.76367 3.62946,-10.58593 0,-5.82227 2.04157,-11.31878 4.53683,-12.21448 3.03277,-1.08864 1.64541,-4.197026 -4.18481,-9.376111 l -8.72163,-7.747576 8.16056,-7.077614 8.16055,-7.077617 -9.25497,-9.254969 c -5.09023,-5.090236 -11.7791,-9.254973 -14.86414,-9.254973 -8.019,0 -6.93152,-11.962284 1.64976,-18.147318 3.99241,-2.877566 7.25892,-8.137899 7.25892,-11.689628 0,-4.755568 2.86997,-6.457689 10.88839,-6.457689 5.98862,0 10.888396,-1.633259 10.888396,-3.629464 0,-1.996205 4.899776,-3.6294637 10.88839,-3.6294637 5.988615,0 10.888391,1.6332587 10.888391,3.6294637 0,1.996205 2.524129,3.629464 5.609173,3.629464 7.260629,0 23.426536,16.165908 23.426536,23.426537 0,3.189529 3.131301,5.609171 7.258927,5.609171 4.839283,0 7.258927,2.419644 7.258927,7.258927 0,3.99241 -1.633259,7.258928 -3.629464,7.258928 -1.996205,0 -3.629463,4.899776 -3.629463,10.888391 0,5.988614 -1.633259,10.88839 -3.629464,10.88839 -1.996205,0 -3.629463,-3.266517 -3.629463,-7.258927 0,-3.99241 -1.633259,-7.258927 -3.629464,-7.258927 -1.996205,0 -3.629463,-1.633259 -3.629463,-3.629464 0,-1.996205 3.266517,-3.629463 7.258927,-3.629463 3.99241,0 7.258927,-1.633259 7.258927,-3.629464 0,-5.733278 -10.806801,-4.229552 -17.466794,2.430445 -4.406894,4.406895 -4.831197,6.469479 -1.555482,7.561381 2.477431,0.825812 4.504422,3.976608 4.504422,7.001773 0,3.025161 4.899775,10.077369 10.88839,15.671574 18.444597,17.229833 14.627098,65.330343 -5.184946,65.330343 -3.136895,0 -5.703444,1.63326 -5.703444,3.62946 0,1.99621 1.633258,3.62947 3.629463,3.62947 1.996205,0 3.629464,6.53303 3.629464,14.51785 v 14.51786 h -32.665172 c -30.245534,0 -32.665174,-0.5377 -32.665174,-7.25893 z m 43.553564,-18.14732 c 0,-1.9962 -3.266517,-3.62946 -7.258927,-3.62946 -3.99241,0 -7.258927,1.63326 -7.258927,3.62946 0,1.99621 3.266517,3.62947 7.258927,3.62947 3.99241,0 7.258927,-1.63326 7.258927,-3.62947 z m -36.294634,-29.03571 c 0,-5.98861 -1.63326,-10.88839 -3.62947,-10.88839 -1.9962,0 -3.62946,4.89978 -3.62946,10.88839 0,5.98862 1.63326,10.88839 3.62946,10.88839 1.99621,0 3.62947,-4.89977 3.62947,-10.88839 z m 65.330343,7.25893 c 0,-1.9962 -1.633259,-3.62946 -3.629464,-3.62946 -1.996205,0 -3.629463,-4.89978 -3.629463,-10.88839 0,-12.17736 -1.774547,-13.26181 -9.332908,-5.70345 -9.939141,9.93915 -6.612451,23.85076 5.703444,23.85076 5.988615,0 10.888391,-1.63325 10.888391,-3.62946 z m -50.81249,-32.66517 c 0,-3.99241 -1.633259,-7.25893 -3.629464,-7.25893 -1.996205,0 -3.629463,3.26652 -3.629463,7.25893 0,3.99241 1.633258,7.25893 3.629463,7.25893 1.996205,0 3.629464,-3.26652 3.629464,-7.25893 z m 24.07544,-5.68616 c 7.119799,-7.119798 11.975492,-13.914684 10.790432,-15.099744 -1.18506,-1.185059 -5.214792,1.373712 -8.954957,5.686161 -3.740166,4.312443 -9.466934,7.840813 -12.726145,7.840813 -3.506199,0 -5.925843,2.96397 -5.925843,7.25893 0,9.89852 1.861138,9.26922 16.816513,-5.68616 z m -3.563472,-18.125323 c 5.111493,-5.111493 8.080173,-10.419583 6.597061,-11.795756 -1.483111,-1.376173 -3.425698,-0.460557 -4.316862,2.034699 -2.558605,7.164096 -8.274313,5.283733 -8.274313,-2.722098 0,-3.99241 -1.633258,-7.258927 -3.629463,-7.258927 -1.996205,0 -3.629464,3.266517 -3.629464,7.258927 0,3.99241 -1.633259,7.258927 -3.629464,7.258927 -1.996205,0 -3.629463,-1.633258 -3.629463,-3.629463 0,-5.39061 -10.643575,-4.392773 -16.591833,1.555483 -7.03345,7.033446 -6.52246,9.332908 2.07398,9.332908 3.992409,0 7.258926,1.633258 7.258926,3.629463 0,7.22447 18.695377,3.411355 27.770895,-5.664163 z M -100.76622,53.53857 c 0,-3.992409 -1.63326,-7.258927 -3.62947,-7.258927 -1.9962,0 -3.62946,3.266518 -3.62946,7.258927 0,3.99241 1.63326,7.258928 3.62946,7.258928 1.99621,0 3.62947,-3.266518 3.62947,-7.258928 z m 29.035707,0 c 0,-4.839283 -2.419643,-7.258927 -7.258927,-7.258927 -4.839284,0 -7.258927,2.419644 -7.258927,7.258927 0,4.839284 2.419643,7.258928 7.258927,7.258928 4.839284,0 7.258927,-2.419644 7.258927,-7.258928 z M -86.248367,36.946737 c 0,-1.140689 -2.333226,-4.407206 -5.184947,-7.258927 -5.94826,-5.948259 -16.591836,-6.946094 -16.591836,-1.555485 0,1.996205 3.26652,3.629464 7.25893,3.629464 3.992409,0 7.258926,1.633259 7.258926,3.629463 0,1.996205 1.633258,3.629464 3.629463,3.629464 1.996205,0 3.629464,-0.933291 3.629464,-2.073979 z"
         id="path1250" /><path
         style="fill:#a26c60;stroke-width:3.62946"
         d="m -108.02515,184.19926 c 0,-8.00583 5.71571,-9.88619 8.274314,-2.7221 0.942454,2.63887 2.966943,3.19018 4.839285,1.31784 1.872341,-1.87234 1.321031,-3.89683 -1.317841,-4.83928 -2.495256,-0.89117 -4.536828,-6.02341 -4.536828,-11.405 0,-5.62107 -3.08885,-12.01101 -7.25893,-15.01663 -7.47888,-5.39048 -10.33828,-25.40625 -3.62946,-25.40625 1.9962,0 3.62946,-4.76367 3.62946,-10.58593 0,-5.82227 2.04157,-11.31878 4.53683,-12.21448 3.03277,-1.08864 1.64541,-4.197026 -4.18481,-9.376111 l -8.72163,-7.747576 8.16056,-7.077614 8.16055,-7.077617 -9.25497,-9.254969 c -5.09023,-5.090236 -11.7791,-9.254973 -14.86414,-9.254973 -8.019,0 -6.93152,-11.962284 1.64976,-18.147318 3.99241,-2.877566 7.25892,-8.137899 7.25892,-11.689628 0,-4.755568 2.86997,-6.457689 10.88839,-6.457689 5.98862,0 10.888396,-1.633259 10.888396,-3.629464 0,-1.996205 4.899776,-3.6294637 10.88839,-3.6294637 5.988615,0 10.888391,1.6332587 10.888391,3.6294637 0,1.996205 2.524129,3.629464 5.609173,3.629464 7.260629,0 23.426536,16.165908 23.426536,23.426537 0,3.189529 3.131301,5.609171 7.258927,5.609171 4.839283,0 7.258927,2.419644 7.258927,7.258927 0,3.99241 -1.633259,7.258928 -3.629464,7.258928 -1.996205,0 -3.629463,4.899776 -3.629463,10.888391 0,5.988614 -1.633259,10.88839 -3.629464,10.88839 -1.996205,0 -3.629463,-3.266517 -3.629463,-7.258927 0,-3.99241 -1.633259,-7.258927 -3.629464,-7.258927 -1.996205,0 -3.629463,-1.633259 -3.629463,-3.629464 0,-1.996205 3.266517,-3.629463 7.258927,-3.629463 3.99241,0 7.258927,-1.633259 7.258927,-3.629464 0,-5.733278 -10.806801,-4.229552 -17.466794,2.430445 -4.406894,4.406895 -4.831197,6.469479 -1.555482,7.561381 2.477431,0.825812 4.504422,3.976608 4.504422,7.001773 0,3.025161 4.899775,10.077369 10.88839,15.671574 18.444597,17.229833 14.627098,65.330343 -5.184946,65.330343 -3.136895,0 -5.703444,1.63326 -5.703444,3.62946 0,1.99621 1.633258,3.62947 3.629463,3.62947 1.996205,0 3.629464,6.53303 3.629464,14.51785 v 14.51786 h -32.665172 c -30.245534,0 -32.665174,-0.5377 -32.665174,-7.25893 z m 43.553564,-18.14732 c 0,-1.9962 -3.266517,-3.62946 -7.258927,-3.62946 -3.99241,0 -7.258927,1.63326 -7.258927,3.62946 0,1.99621 3.266517,3.62947 7.258927,3.62947 3.99241,0 7.258927,-1.63326 7.258927,-3.62947 z m -36.294634,-29.03571 c 0,-5.98861 -1.63326,-10.88839 -3.62947,-10.88839 -1.9962,0 -3.62946,4.89978 -3.62946,10.88839 0,5.98862 1.63326,10.88839 3.62946,10.88839 1.99621,0 3.62947,-4.89977 3.62947,-10.88839 z m 65.330343,7.25893 c 0,-1.9962 -1.633259,-3.62946 -3.629464,-3.62946 -1.996205,0 -3.629463,-4.89978 -3.629463,-10.88839 0,-12.17736 -1.774547,-13.26181 -9.332908,-5.70345 -9.939141,9.93915 -6.612451,23.85076 5.703444,23.85076 5.988615,0 10.888391,-1.63325 10.888391,-3.62946 z m -50.81249,-32.66517 c 0,-3.99241 -1.633259,-7.25893 -3.629464,-7.25893 -1.996205,0 -3.629463,3.26652 -3.629463,7.25893 0,3.99241 1.633258,7.25893 3.629463,7.25893 1.996205,0 3.629464,-3.26652 3.629464,-7.25893 z m 24.07544,-5.68616 c 7.119799,-7.119798 11.975492,-13.914684 10.790432,-15.099744 -1.18506,-1.185059 -5.214792,1.373712 -8.954957,5.686161 -3.740166,4.312443 -9.466934,7.840813 -12.726145,7.840813 -3.506199,0 -5.925843,2.96397 -5.925843,7.25893 0,9.89852 1.861138,9.26922 16.816513,-5.68616 z m -3.563472,-18.125323 c 5.111493,-5.111493 8.080173,-10.419583 6.597061,-11.795756 -1.483111,-1.376173 -3.425698,-0.460557 -4.316862,2.034699 -2.558605,7.164096 -8.274313,5.283733 -8.274313,-2.722098 0,-3.99241 -1.633258,-7.258927 -3.629463,-7.258927 -1.996205,0 -3.629464,3.266517 -3.629464,7.258927 0,3.99241 -1.633259,7.258927 -3.629464,7.258927 -1.996205,0 -3.629463,-1.633258 -3.629463,-3.629463 0,-5.39061 -10.643575,-4.392773 -16.591833,1.555483 -7.03345,7.033446 -6.52246,9.332908 2.07398,9.332908 3.992409,0 7.258926,1.633258 7.258926,3.629463 0,7.22447 18.695377,3.411355 27.770895,-5.664163 z M -100.76622,55.094053 c 0,-3.136891 -2.33323,-8.036666 -5.18495,-10.888389 -5.94826,-5.948258 -16.59183,-6.946094 -16.59183,-1.555484 0,1.996205 3.26651,3.629463 7.25892,3.629463 4.83929,0 7.25893,2.419644 7.25893,7.258927 0,3.99241 1.63326,7.258928 3.62946,7.258928 1.99621,0 3.62947,-2.56655 3.62947,-5.703445 z m 29.035707,-1.555483 c 0,-4.839283 -2.419643,-7.258927 -7.258927,-7.258927 -4.839284,0 -7.258927,2.419644 -7.258927,7.258927 0,4.839284 2.419643,7.258928 7.258927,7.258928 4.839284,0 7.258927,-2.419644 7.258927,-7.258928 z M -78.98944,35.391252 c 0,-1.996204 -1.633259,-3.629463 -3.629464,-3.629463 -1.996205,0 -3.629463,-1.633259 -3.629463,-3.629464 0,-5.260538 13.614444,-4.465258 15.53324,0.907366 0.891164,2.495256 2.854962,3.38966 4.363998,1.987563 3.671155,-3.410993 -7.010066,-13.783319 -14.193794,-13.783319 -3.136894,0 -5.703444,1.633258 -5.703444,3.629463 0,1.996205 -4.899776,3.629464 -10.888391,3.629464 -12.034492,0 -13.060722,1.468487 -6.351562,9.08879 5.173262,5.875817 24.49888,7.295408 24.49888,1.7996 z"
         id="path1248" /><path
         style="fill:#7a9a3d;stroke-width:3.62946"
         d="m -108.02515,184.19926 c 0,-8.00583 5.71571,-9.88619 8.274314,-2.7221 0.942454,2.63887 2.966943,3.19018 4.839285,1.31784 1.872341,-1.87234 1.321031,-3.89683 -1.317841,-4.83928 -2.495256,-0.89117 -4.536828,-6.02341 -4.536828,-11.405 0,-5.62107 -3.08885,-12.01101 -7.25893,-15.01663 -7.47888,-5.39048 -10.33828,-25.40625 -3.62946,-25.40625 1.9962,0 3.62946,-4.76367 3.62946,-10.58593 0,-5.82227 2.04157,-11.31878 4.53683,-12.21448 3.03277,-1.08864 1.64541,-4.197026 -4.18481,-9.376111 l -8.72163,-7.747576 8.16056,-7.077614 8.16055,-7.077617 -9.25497,-9.254969 c -5.09023,-5.090236 -11.7791,-9.254973 -14.86414,-9.254973 -8.019,0 -6.93152,-11.962284 1.64976,-18.147318 3.99241,-2.877566 7.25892,-8.137899 7.25892,-11.689628 0,-4.755568 2.86997,-6.457689 10.88839,-6.457689 5.98862,0 10.888396,-1.633259 10.888396,-3.629464 0,-1.996205 4.899776,-3.6294637 10.88839,-3.6294637 5.988615,0 10.888391,1.6332587 10.888391,3.6294637 0,1.996205 2.524129,3.629464 5.609173,3.629464 7.260629,0 23.426536,16.165908 23.426536,23.426537 0,3.189529 3.131301,5.609171 7.258927,5.609171 4.839283,0 7.258927,2.419644 7.258927,7.258927 0,3.99241 -1.633259,7.258928 -3.629464,7.258928 -1.996205,0 -3.629463,4.763671 -3.629463,10.585936 0,5.822263 -2.041573,11.318777 -4.53683,12.214474 -3.077393,1.104656 -1.909845,3.965886 3.629464,8.894465 15.981283,14.219287 9.868243,62.671177 -7.907044,62.671177 -3.136895,0 -5.703444,1.63326 -5.703444,3.62946 0,1.99621 1.633258,3.62947 3.629463,3.62947 1.996205,0 3.629464,6.53303 3.629464,14.51785 v 14.51786 h -32.665172 c -30.245534,0 -32.665174,-0.5377 -32.665174,-7.25893 z m 43.553564,-18.14732 c 0,-1.9962 -3.266517,-3.62946 -7.258927,-3.62946 -3.99241,0 -7.258927,1.63326 -7.258927,3.62946 0,1.99621 3.266517,3.62947 7.258927,3.62947 3.99241,0 7.258927,-1.63326 7.258927,-3.62947 z m -36.294634,-29.03571 c 0,-5.98861 -1.63326,-10.88839 -3.62947,-10.88839 -1.9962,0 -3.62946,4.89978 -3.62946,10.88839 0,5.98862 1.63326,10.88839 3.62946,10.88839 1.99621,0 3.62947,-4.89977 3.62947,-10.88839 z m 14.517853,-10.88839 c 0,-19.35714 -0.806547,-21.77678 -7.258927,-21.77678 -3.99241,0 -7.258926,1.63326 -7.258926,3.62946 0,1.99621 1.633257,3.62947 3.629462,3.62947 1.996205,0 3.629464,8.16629 3.629464,18.14732 0,9.98102 1.633258,18.14731 3.629463,18.14731 2.016371,0 3.629464,-9.67857 3.629464,-21.77678 z m 21.776781,18.44977 c 0,-1.82985 -2.041573,-4.27974 -4.536829,-5.44419 -3.629464,-1.69375 -3.629464,-2.54063 0,-4.23437 2.495256,-1.16446 4.536829,-6.1809 4.536829,-11.14764 0,-8.1636 7.207538,-19.40035 12.443874,-19.40035 1.140689,0 2.073981,4.89978 2.073981,10.88839 0,5.98862 -1.633259,10.88839 -3.629464,10.88839 -1.996205,0 -3.629464,4.89978 -3.629464,10.88839 0,9.67857 1.20982,10.88839 10.888391,10.88839 5.988615,0 10.888391,-1.63325 10.888391,-3.62946 0,-1.9962 -1.633259,-3.62946 -3.629464,-3.62946 -2.07398,0 -3.629463,-10.88839 -3.629463,-25.40625 0,-27.500767 -6.628312,-34.129082 -18.147318,-18.147316 -2.877566,3.992406 -8.1379,7.258926 -11.689628,7.258926 -5.473089,0 -6.45769,3.3203 -6.45769,21.77678 0,19.35714 0.806547,21.77678 7.258927,21.77678 3.99241,0 7.258927,-1.49715 7.258927,-3.32701 z m -1.264813,-56.779103 c 5.111493,-5.111493 8.080173,-10.419583 6.597061,-11.795756 -1.483111,-1.376173 -3.425698,-0.460557 -4.316862,2.034699 -2.558605,7.164096 -8.274313,5.283733 -8.274313,-2.722098 0,-3.99241 -1.633258,-7.258927 -3.629463,-7.258927 -1.996205,0 -3.629464,3.266517 -3.629464,7.258927 0,3.99241 -1.633259,7.258927 -3.629464,7.258927 -1.996205,0 -3.629463,-1.633258 -3.629463,-3.629463 0,-5.39061 -10.643575,-4.392773 -16.591833,1.555483 -7.03345,7.033446 -6.52246,9.332908 2.07398,9.332908 3.992409,0 7.258926,1.633258 7.258926,3.629463 0,7.22447 18.695377,3.411355 27.770895,-5.664163 z m 23.041595,-12.483155 c 0,-3.99241 -1.633259,-7.258927 -3.629464,-7.258927 -1.996205,0 -3.629463,-1.633259 -3.629463,-3.629464 0,-1.996205 3.266517,-3.629463 7.258927,-3.629463 3.99241,0 7.258927,-1.633259 7.258927,-3.629464 0,-5.733278 -10.806801,-4.229552 -17.466794,2.430445 -4.406894,4.406895 -4.831197,6.469479 -1.555482,7.561381 2.477431,0.825812 4.504422,4.631889 4.504422,8.457946 0,3.826061 1.633258,6.956473 3.629463,6.956473 1.996205,0 3.629464,-3.266517 3.629464,-7.258927 z M -98.692242,55.612551 c 7.033448,-7.033447 6.522456,-9.332908 -2.073978,-9.332908 -3.99241,0 -7.25893,-1.633258 -7.25893,-3.629463 0,-1.996205 -3.26652,-3.629464 -7.25893,-3.629464 -3.99241,0 -7.25892,1.633259 -7.25892,3.629464 0,1.996205 3.26651,3.629463 7.25892,3.629463 4.83929,0 7.25893,2.419644 7.25893,7.258927 0,8.596436 2.29946,9.107428 9.332908,2.073981 z m 29.03571,0 c 7.558358,-7.558361 6.47391,-9.332908 -5.703444,-9.332908 -8.468748,0 -10.888391,1.613094 -10.888391,7.258927 0,8.497457 9.038536,9.627276 16.591835,2.073981 z M -78.98944,35.391252 c 0,-1.996204 -1.633259,-3.629463 -3.629464,-3.629463 -1.996205,0 -3.629463,-1.633259 -3.629463,-3.629464 0,-5.260538 13.614444,-4.465258 15.53324,0.907366 0.891164,2.495256 2.854962,3.38966 4.363998,1.987563 3.671155,-3.410993 -7.010066,-13.783319 -14.193794,-13.783319 -3.136894,0 -5.703444,1.633258 -5.703444,3.629463 0,1.996205 -4.899776,3.629464 -10.888391,3.629464 -12.034492,0 -13.060722,1.468487 -6.351562,9.08879 5.173262,5.875817 24.49888,7.295408 24.49888,1.7996 z"
         id="path1246" /><path
         style="fill:#90366b;stroke-width:3.62946"
         d="m -108.02515,184.19926 c 0,-8.00583 5.71571,-9.88619 8.274314,-2.7221 0.942454,2.63887 2.966943,3.19018 4.839285,1.31784 1.872341,-1.87234 1.321031,-3.89683 -1.317841,-4.83928 -2.495256,-0.89117 -4.536828,-6.02341 -4.536828,-11.405 0,-5.62107 -3.08885,-12.01101 -7.25893,-15.01663 -7.47888,-5.39048 -10.33828,-25.40625 -3.62946,-25.40625 1.9962,0 3.62946,-4.76367 3.62946,-10.58593 0,-5.82227 2.04157,-11.31878 4.53683,-12.21448 3.03277,-1.08864 1.64541,-4.197026 -4.18481,-9.376111 l -8.72163,-7.747576 8.16056,-7.077614 8.16055,-7.077617 -9.25497,-9.254969 c -5.09023,-5.090236 -11.7791,-9.254973 -14.86414,-9.254973 -8.019,0 -6.93152,-11.962284 1.64976,-18.147318 3.99241,-2.877566 7.25892,-8.137899 7.25892,-11.689628 0,-4.755568 2.86997,-6.457689 10.88839,-6.457689 5.98862,0 10.888396,-1.633259 10.888396,-3.629464 0,-1.996205 4.899776,-3.6294637 10.88839,-3.6294637 5.988615,0 10.888391,1.6332587 10.888391,3.6294637 0,1.996205 2.524129,3.629464 5.609173,3.629464 7.260629,0 23.426536,16.165908 23.426536,23.426537 0,3.189529 3.131301,5.609171 7.258927,5.609171 4.839283,0 7.258927,2.419644 7.258927,7.258927 0,3.99241 -1.633259,7.258928 -3.629464,7.258928 -1.996205,0 -3.629463,4.763671 -3.629463,10.585936 0,5.822263 -2.041573,11.318777 -4.53683,12.214474 -3.077393,1.104656 -1.909845,3.965886 3.629464,8.894465 15.981283,14.219287 9.868243,62.671177 -7.907044,62.671177 -3.136895,0 -5.703444,1.63326 -5.703444,3.62946 0,1.99621 1.633258,3.62947 3.629463,3.62947 1.996205,0 3.629464,6.53303 3.629464,14.51785 v 14.51786 h -32.665172 c -30.245534,0 -32.665174,-0.5377 -32.665174,-7.25893 z m 43.553564,-18.14732 c 0,-1.9962 -3.266517,-3.62946 -7.258927,-3.62946 -3.99241,0 -7.258927,1.63326 -7.258927,3.62946 0,1.99621 3.266517,3.62947 7.258927,3.62947 3.99241,0 7.258927,-1.63326 7.258927,-3.62947 z m -36.294634,-29.03571 c 0,-5.98861 -1.63326,-10.88839 -3.62947,-10.88839 -1.9962,0 -3.62946,4.89978 -3.62946,10.88839 0,5.98862 1.63326,10.88839 3.62946,10.88839 1.99621,0 3.62947,-4.89977 3.62947,-10.88839 z m 14.517853,-10.88839 c 0,-19.35714 -0.806547,-21.77678 -7.258927,-21.77678 -3.99241,0 -7.258926,1.63326 -7.258926,3.62946 0,1.99621 1.633257,3.62947 3.629462,3.62947 1.996205,0 3.629464,8.16629 3.629464,18.14732 0,9.98102 1.633258,18.14731 3.629463,18.14731 2.016371,0 3.629464,-9.67857 3.629464,-21.77678 z m 21.776781,18.44977 c 0,-1.82985 -2.041573,-4.27974 -4.536829,-5.44419 -3.629464,-1.69375 -3.629464,-2.54063 0,-4.23437 2.495256,-1.16446 4.536829,-6.1809 4.536829,-11.14764 0,-8.1636 7.207538,-19.40035 12.443874,-19.40035 1.140689,0 2.073981,4.89978 2.073981,10.88839 0,5.98862 -1.633259,10.88839 -3.629464,10.88839 -1.996205,0 -3.629464,4.89978 -3.629464,10.88839 0,9.67857 1.20982,10.88839 10.888391,10.88839 8.468747,0 10.888391,-1.61309 10.888391,-7.25892 0,-3.99241 -1.633259,-7.25893 -3.629464,-7.25893 -2.01637,0 -3.629463,-9.67857 -3.629463,-21.77678 0,-23.815758 -7.259748,-29.623557 -18.147318,-14.517856 -2.877566,3.992406 -8.1379,7.258926 -11.689628,7.258926 -5.473089,0 -6.45769,3.3203 -6.45769,21.77678 0,19.35714 0.806547,21.77678 7.258927,21.77678 3.99241,0 7.258927,-1.49715 7.258927,-3.32701 z m 2.073981,-52.670423 c 2.85172,-2.851724 5.184946,-9.384758 5.184946,-14.517854 0,-5.1331 1.633259,-9.332908 3.629464,-9.332908 1.996205,0 3.629464,3.266517 3.629464,7.258927 0,3.99241 1.633258,7.258927 3.629463,7.258927 1.996205,0 3.629464,-4.899776 3.629464,-10.88839 0,-5.988615 1.633258,-10.888391 3.629463,-10.888391 1.996205,0 3.629464,-1.633259 3.629464,-3.629464 0,-1.996205 -3.266517,-3.629464 -7.258927,-3.629464 -3.99241,0 -7.258927,1.633259 -7.258927,3.629464 0,1.996205 -3.266518,3.629464 -7.258928,3.629464 -4.839283,0 -7.258927,2.419643 -7.258927,7.258927 0,3.99241 -1.633258,7.258927 -3.629463,7.258927 -1.996205,0 -3.629464,-1.633259 -3.629464,-3.629463 0,-1.996205 -1.633258,-3.629464 -3.629463,-3.629464 -1.996205,0 -3.629464,3.266517 -3.629464,7.258927 0,3.99241 -1.633259,7.258927 -3.629464,7.258927 -1.996205,0 -3.629463,-3.266517 -3.629463,-7.258927 0,-9.416592 -2.066715,-9.151627 -12.868098,1.649755 -10.801385,10.801385 -11.066345,12.8681 -1.649755,12.8681 3.992409,0 7.258926,1.633258 7.258926,3.629463 0,5.569245 25.247325,4.306878 31.109689,-1.555483 z M -98.692242,55.612551 c 7.033448,-7.033447 6.522456,-9.332908 -2.073978,-9.332908 -3.99241,0 -7.25893,-1.633258 -7.25893,-3.629463 0,-1.996205 -3.26652,-3.629464 -7.25893,-3.629464 -3.99241,0 -7.25892,1.633259 -7.25892,3.629464 0,1.996205 3.26651,3.629463 7.25892,3.629463 4.83929,0 7.25893,2.419644 7.25893,7.258927 0,8.596436 2.29946,9.107428 9.332908,2.073981 z m 29.03571,0 c 7.558358,-7.558361 6.47391,-9.332908 -5.703444,-9.332908 -8.468748,0 -10.888391,1.613094 -10.888391,7.258927 0,8.497457 9.038536,9.627276 16.591835,2.073981 z M -78.98944,35.391252 c 0,-1.996204 -1.633259,-3.629463 -3.629464,-3.629463 -1.996205,0 -3.629463,-1.633259 -3.629463,-3.629464 0,-5.260538 13.614444,-4.465258 15.53324,0.907366 0.891164,2.495256 2.854962,3.38966 4.363998,1.987563 3.671155,-3.410993 -7.010066,-13.783319 -14.193794,-13.783319 -3.136894,0 -5.703444,1.633258 -5.703444,3.629463 0,1.996205 -4.899776,3.629464 -10.888391,3.629464 -12.034492,0 -13.060722,1.468487 -6.351562,9.08879 5.173262,5.875817 24.49888,7.295408 24.49888,1.7996 z"
         id="path1244" /><path
         style="fill:#6a4c52;stroke-width:3.62946"
         d="m -108.02515,184.19926 c 0,-8.00583 5.71571,-9.88619 8.274314,-2.7221 0.942454,2.63887 2.966943,3.19018 4.839285,1.31784 1.872341,-1.87234 1.321031,-3.89683 -1.317841,-4.83928 -2.495256,-0.89117 -4.536828,-6.02341 -4.536828,-11.405 0,-5.62107 -3.08885,-12.01101 -7.25893,-15.01663 -7.47888,-5.39048 -10.33828,-25.40625 -3.62946,-25.40625 1.9962,0 3.62946,-4.76367 3.62946,-10.58593 0,-5.82227 2.04157,-11.31878 4.53683,-12.21448 3.03277,-1.08864 1.64541,-4.197026 -4.18481,-9.376111 l -8.72163,-7.747576 8.16056,-7.077614 8.16055,-7.077617 -9.25497,-9.254969 c -5.09023,-5.090236 -11.7791,-9.254973 -14.86414,-9.254973 -3.08504,0 -5.60917,-2.566549 -5.60917,-5.703444 0,-7.183727 10.37233,-17.864948 13.78332,-14.193794 1.4021,1.509037 0.50769,3.472836 -1.98756,4.363998 -7.1641,2.558606 -5.28374,8.274313 2.72209,8.274313 3.99241,0 7.25893,-1.633258 7.25893,-3.629463 0,-1.996205 6.39693,-3.629464 14.215401,-3.629464 7.823509,0 15.16738,-2.039964 16.332587,-4.536829 1.693747,-3.629464 2.540624,-3.629464 4.234371,0 2.039313,4.369948 16.030132,6.60176 16.030132,2.557122 0,-1.088839 -4.008905,-5.988615 -8.908681,-10.888391 -9.693557,-9.693556 -18.585155,-11.532172 -21.142413,-4.371854 -0.891164,2.495256 -2.854962,3.38966 -4.363998,1.987563 -3.671154,-3.410993 7.010066,-13.7833197 14.193794,-13.7833197 3.136894,0 5.703444,1.6332587 5.703444,3.6294637 0,1.996205 2.524129,3.629464 5.609173,3.629464 7.260629,0 23.426536,16.165908 23.426536,23.426537 0,3.189529 3.131301,5.609171 7.258927,5.609171 4.839283,0 7.258927,2.419644 7.258927,7.258927 0,3.99241 -1.633259,7.258928 -3.629464,7.258928 -1.996205,0 -3.629463,4.763671 -3.629463,10.585936 0,5.822263 -2.041573,11.318777 -4.53683,12.214474 -3.077393,1.104656 -1.909845,3.965886 3.629464,8.894465 15.981283,14.219287 9.868243,62.671177 -7.907044,62.671177 -3.136895,0 -5.703444,1.63326 -5.703444,3.62946 0,1.99621 1.633258,3.62947 3.629463,3.62947 1.996205,0 3.629464,6.53303 3.629464,14.51785 v 14.51786 h -32.665172 c -30.245534,0 -32.665174,-0.5377 -32.665174,-7.25893 z m 43.553564,-18.14732 c 0,-1.9962 -3.266517,-3.62946 -7.258927,-3.62946 -3.99241,0 -7.258927,1.63326 -7.258927,3.62946 0,1.99621 3.266517,3.62947 7.258927,3.62947 3.99241,0 7.258927,-1.63326 7.258927,-3.62947 z m -36.294634,-29.03571 c 0,-5.98861 -1.63326,-10.88839 -3.62947,-10.88839 -1.9962,0 -3.62946,4.89978 -3.62946,10.88839 0,5.98862 1.63326,10.88839 3.62946,10.88839 1.99621,0 3.62947,-4.89977 3.62947,-10.88839 z m 14.517853,-10.88839 c 0,-19.35714 -0.806547,-21.77678 -7.258927,-21.77678 -3.99241,0 -7.258926,1.63326 -7.258926,3.62946 0,1.99621 1.633257,3.62947 3.629462,3.62947 1.996205,0 3.629464,8.16629 3.629464,18.14732 0,9.98102 1.633258,18.14731 3.629463,18.14731 2.016371,0 3.629464,-9.67857 3.629464,-21.77678 z m 21.776781,18.44977 c 0,-1.82985 -2.041573,-4.27974 -4.536829,-5.44419 -3.629464,-1.69375 -3.629464,-2.54063 0,-4.23437 2.495256,-1.16446 4.536829,-6.1809 4.536829,-11.14764 0,-8.1636 7.207538,-19.40035 12.443874,-19.40035 1.140689,0 2.073981,4.89978 2.073981,10.88839 0,5.98862 -1.633259,10.88839 -3.629464,10.88839 -1.996205,0 -3.629464,4.89978 -3.629464,10.88839 0,9.67857 1.20982,10.88839 10.888391,10.88839 8.468747,0 10.888391,-1.61309 10.888391,-7.25892 0,-3.99241 -1.633259,-7.25893 -3.629464,-7.25893 -2.01637,0 -3.629463,-9.67857 -3.629463,-21.77678 0,-23.815758 -7.259748,-29.623557 -18.147318,-14.517856 -2.877566,3.992406 -8.1379,7.258926 -11.689628,7.258926 -5.473089,0 -6.45769,3.3203 -6.45769,21.77678 0,19.35714 0.806547,21.77678 7.258927,21.77678 3.99241,0 7.258927,-1.49715 7.258927,-3.32701 z m 2.073981,-52.670423 c 2.85172,-2.851724 5.184946,-9.384758 5.184946,-14.517854 0,-5.1331 1.633259,-9.332908 3.629464,-9.332908 1.996205,0 3.629464,3.266517 3.629464,7.258927 0,3.99241 1.633258,7.258927 3.629463,7.258927 1.996205,0 3.629464,-4.899776 3.629464,-10.88839 0,-5.988615 1.633258,-10.888391 3.629463,-10.888391 1.996205,0 3.629464,-1.633259 3.629464,-3.629464 0,-1.996205 -3.266517,-3.629464 -7.258927,-3.629464 -3.99241,0 -7.258927,1.633259 -7.258927,3.629464 0,1.996205 -3.266518,3.629464 -7.258928,3.629464 -4.839283,0 -7.258927,2.419643 -7.258927,7.258927 0,3.99241 -1.633258,7.258927 -3.629463,7.258927 -1.996205,0 -3.629464,-1.633259 -3.629464,-3.629463 0,-7.082405 -18.612227,-3.494506 -27.385952,5.279218 -10.801385,10.801385 -11.066345,12.8681 -1.649755,12.8681 3.992409,0 7.258926,1.633258 7.258926,3.629463 0,5.569245 25.247325,4.306878 31.109689,-1.555483 z M -98.692242,55.612551 c 7.033448,-7.033447 6.522456,-9.332908 -2.073978,-9.332908 -4.83929,0 -7.25893,2.419644 -7.25893,7.258927 0,8.596436 2.29946,9.107428 9.332908,2.073981 z m 29.03571,0 c 7.558358,-7.558361 6.47391,-9.332908 -5.703444,-9.332908 -8.468748,0 -10.888391,1.613094 -10.888391,7.258927 0,8.497457 9.038536,9.627276 16.591835,2.073981 z"
         id="path1242" /><path
         style="fill:#65642b;stroke-width:3.62946"
         d="m -108.02515,184.19926 c 0,-8.00583 5.71571,-9.88619 8.274314,-2.7221 0.942454,2.63887 2.966943,3.19018 4.839285,1.31784 1.872341,-1.87234 1.321031,-3.89683 -1.317841,-4.83928 -2.495256,-0.89117 -4.536828,-6.02341 -4.536828,-11.405 0,-5.62107 -3.08885,-12.01101 -7.25893,-15.01663 -7.47888,-5.39048 -10.33828,-25.40625 -3.62946,-25.40625 1.9962,0 3.62946,-4.76367 3.62946,-10.58593 0,-5.82227 2.04157,-11.31878 4.53683,-12.21448 3.03277,-1.08864 1.64541,-4.197026 -4.18481,-9.376111 l -8.72163,-7.747576 8.16056,-7.077614 8.16055,-7.077617 -9.25497,-9.254969 c -5.09023,-5.090236 -11.7791,-9.254973 -14.86414,-9.254973 -3.08504,0 -5.60917,-2.566549 -5.60917,-5.703444 0,-7.183727 10.37233,-17.864948 13.78332,-14.193794 1.4021,1.509037 0.50769,3.472836 -1.98756,4.363998 -7.1641,2.558606 -5.28374,8.274313 2.72209,8.274313 4.83929,0 7.25893,2.419644 7.25893,7.258927 0,3.99241 1.63326,7.258928 3.62946,7.258928 1.99621,0 3.62947,-1.633259 3.62947,-3.629464 0,-1.996205 3.266516,-3.629464 7.258926,-3.629464 3.99241,0 7.258927,1.633259 7.258927,3.629464 0,5.508154 17.958313,4.336962 23.850762,-1.555483 6.702534,-6.702537 6.556405,-9.332908 -0.518498,-9.332908 -7.183728,0 -17.864949,-10.372326 -14.193794,-13.78332 1.509037,-1.402096 3.472834,-0.507693 4.363998,1.987564 1.552224,4.346221 15.53324,6.647813 15.53324,2.557122 0,-1.088839 -4.008905,-5.988615 -8.908681,-10.888391 -9.693557,-9.693556 -18.585155,-11.532172 -21.142413,-4.371854 -0.891164,2.495256 -2.854962,3.38966 -4.363998,1.987563 -3.671154,-3.410993 7.010066,-13.7833197 14.193794,-13.7833197 3.136894,0 5.703444,1.6332587 5.703444,3.6294637 0,1.996205 2.524129,3.629464 5.609173,3.629464 7.260629,0 23.426536,16.165908 23.426536,23.426537 0,3.189529 3.131301,5.609171 7.258927,5.609171 4.839283,0 7.258927,2.419644 7.258927,7.258927 0,3.99241 -1.633259,7.258928 -3.629464,7.258928 -1.996205,0 -3.629463,4.763671 -3.629463,10.585936 0,5.822263 -2.041573,11.318777 -4.53683,12.214474 -3.077393,1.104656 -1.909845,3.965886 3.629464,8.894465 15.981283,14.219287 9.868243,62.671177 -7.907044,62.671177 -3.136895,0 -5.703444,1.63326 -5.703444,3.62946 0,1.99621 1.633258,3.62947 3.629463,3.62947 1.996205,0 3.629464,6.53303 3.629464,14.51785 v 14.51786 h -32.665172 c -30.245534,0 -32.665174,-0.5377 -32.665174,-7.25893 z m 58.071419,-7.25893 c 0,-3.99241 -1.633259,-7.25892 -3.629464,-7.25892 -1.996205,0 -3.629464,1.63325 -3.629464,3.62946 0,1.9962 -6.533034,3.62946 -14.517854,3.62946 -7.98482,0 -14.517854,1.63326 -14.517854,3.62947 0,1.9962 8.166293,3.62946 18.147318,3.62946 15.727674,0 18.147318,-0.96786 18.147318,-7.25893 z m -14.517855,-10.88839 c 0,-1.9962 -3.266517,-3.62946 -7.258927,-3.62946 -3.99241,0 -7.258927,1.63326 -7.258927,3.62946 0,1.99621 3.266517,3.62947 7.258927,3.62947 3.99241,0 7.258927,-1.63326 7.258927,-3.62947 z m -21.776781,-21.77678 c 0,-5.98861 1.633258,-10.88839 3.629463,-10.88839 1.996205,0 3.629464,4.89978 3.629464,10.88839 0,9.67857 1.20982,10.88839 10.888391,10.88839 5.988615,0 10.88839,-1.63326 10.88839,-3.62946 0,-1.99621 4.899776,-3.62947 10.888391,-3.62947 8.468747,0 10.888391,-1.61309 10.888391,-7.25892 0,-3.99241 -1.633259,-7.25893 -3.629464,-7.25893 -1.996205,0 -3.629463,-3.26652 -3.629463,-7.25893 0,-3.99241 1.633258,-7.25892 3.629463,-7.25892 5.508154,0 4.336962,-17.95832 -1.555483,-23.850767 -7.184519,-7.184516 -14.056128,-6.479736 -20.221298,2.073981 -3.976103,5.516546 -9.39556,7.258926 -22.578018,7.258926 -16.85378,0 -17.34608,0.30902 -17.34608,10.88839 0,5.98862 -1.63326,10.88839 -3.62947,10.88839 -1.9962,0 -3.62946,4.89978 -3.62946,10.88839 0,5.98862 1.63326,10.88839 3.62946,10.88839 1.99621,0 3.62947,-4.89977 3.62947,-10.88839 0,-5.98861 1.633257,-10.88839 3.629462,-10.88839 1.996205,0 3.629464,6.53304 3.629464,14.51786 0,7.98482 1.633258,14.51785 3.629463,14.51785 1.996205,0 3.629464,-4.89977 3.629464,-10.88839 z m 21.776781,-7.25893 c 0,-5.98861 1.633259,-10.88839 3.629464,-10.88839 1.996205,0 3.629463,-4.89977 3.629463,-10.88839 0,-5.98861 1.633259,-10.88839 3.629464,-10.88839 1.996205,0 3.629464,4.89978 3.629464,10.88839 0,5.98862 -1.633259,10.88839 -3.629464,10.88839 -1.996205,0 -3.629464,4.89978 -3.629464,10.88839 0,5.98862 -1.633258,10.88839 -3.629463,10.88839 -1.996205,0 -3.629464,-4.89977 -3.629464,-10.88839 z m 2.073981,-45.109043 c 2.85172,-2.851724 5.184946,-9.384758 5.184946,-14.517854 0,-5.1331 1.633259,-9.332908 3.629464,-9.332908 1.996205,0 3.629464,3.266517 3.629464,7.258927 0,3.99241 1.633258,7.258927 3.629463,7.258927 1.996205,0 3.629464,-4.899776 3.629464,-10.88839 0,-5.988615 1.633258,-10.888391 3.629463,-10.888391 1.996205,0 3.629464,-1.633259 3.629464,-3.629464 0,-1.996205 -3.266517,-3.629464 -7.258927,-3.629464 -3.99241,0 -7.258927,1.633259 -7.258927,3.629464 0,1.996205 -3.266518,3.629464 -7.258928,3.629464 -4.839283,0 -7.258927,2.419643 -7.258927,7.258927 0,3.99241 -1.633258,7.258927 -3.629463,7.258927 -1.996205,0 -3.629464,-1.633259 -3.629464,-3.629463 0,-7.082405 -18.612227,-3.494506 -27.385952,5.279218 -10.801385,10.801385 -11.066345,12.8681 -1.649755,12.8681 3.992409,0 7.258926,1.633258 7.258926,3.629463 0,5.569245 25.247325,4.306878 31.109689,-1.555483 z"
         id="path1240" /><path
         style="fill:#5f2867;stroke-width:3.62946"
         d="m -108.02515,184.19926 c 0,-8.00583 5.71571,-9.88619 8.274314,-2.7221 0.942454,2.63887 2.966943,3.19018 4.839285,1.31784 1.872341,-1.87234 1.321031,-3.89683 -1.317841,-4.83928 -2.495256,-0.89117 -4.536828,-6.02341 -4.536828,-11.405 0,-5.62107 -3.08885,-12.01101 -7.25893,-15.01663 -7.47888,-5.39048 -10.33828,-25.40625 -3.62946,-25.40625 1.9962,0 3.62946,-4.76367 3.62946,-10.58593 0,-5.82227 2.04157,-11.31878 4.53683,-12.21448 3.03277,-1.08864 1.64541,-4.197026 -4.18481,-9.376111 l -8.72163,-7.747576 8.16056,-7.077614 8.16055,-7.077617 -9.25497,-9.254969 c -5.09023,-5.090236 -11.7791,-9.254973 -14.86414,-9.254973 -3.08504,0 -5.60917,-2.566549 -5.60917,-5.703444 0,-7.183727 10.37233,-17.864948 13.78332,-14.193794 1.4021,1.509037 0.50769,3.472836 -1.98756,4.363998 -7.1641,2.558606 -5.28374,8.274313 2.72209,8.274313 4.83929,0 7.25893,2.419644 7.25893,7.258927 0,3.99241 1.63326,7.258928 3.62946,7.258928 1.99621,0 3.62947,-1.633259 3.62947,-3.629464 0,-1.996205 3.266516,-3.629464 7.258926,-3.629464 3.99241,0 7.258927,1.633259 7.258927,3.629464 0,5.508154 17.958313,4.336962 23.850762,-1.555483 6.702534,-6.702537 6.556405,-9.332908 -0.518498,-9.332908 -7.183728,0 -17.864949,-10.372326 -14.193794,-13.78332 1.509037,-1.402096 3.472834,-0.507693 4.363998,1.987564 1.552224,4.346221 15.53324,6.647813 15.53324,2.557122 0,-1.088839 -4.008905,-5.988615 -8.908681,-10.888391 -9.693557,-9.693556 -18.585155,-11.532172 -21.142413,-4.371854 -0.891164,2.495256 -2.854962,3.38966 -4.363998,1.987563 -3.671154,-3.410993 7.010066,-13.7833197 14.193794,-13.7833197 3.136894,0 5.703444,1.6332587 5.703444,3.6294637 0,1.996205 2.524129,3.629464 5.609173,3.629464 7.260629,0 23.426536,16.165908 23.426536,23.426537 0,3.189529 3.131301,5.609171 7.258927,5.609171 4.179382,0 7.258927,2.419644 7.258927,5.703445 0,7.183728 -10.372325,17.864949 -13.78332,14.193794 -1.402098,-1.509037 -0.507693,-3.472834 1.987563,-4.363998 8.269185,-2.95328 4.699891,-8.274314 -5.550324,-8.274314 -5.923531,0 -12.246714,2.996232 -15.319091,7.258928 -5.390476,7.478883 -25.406245,10.33828 -25.406245,3.629463 0,-1.996205 -1.633259,-3.629463 -3.629464,-3.629463 -1.996205,0 -3.629463,2.666628 -3.629463,5.925843 0,3.259211 -3.445066,8.91373 -7.655706,12.565595 -6.8889,5.974714 -7.09663,7.198823 -2.07397,12.221475 8.660406,8.660409 34.61445,7.293668 42.899518,-2.259091 3.740165,-4.312449 7.779795,-6.861323 8.976955,-5.664166 6.176175,6.176178 -16.943526,20.763906 -32.908161,20.763906 -15.910982,0 -16.497562,0.38714 -16.497562,10.88839 0,5.98862 1.633257,10.88839 3.629462,10.88839 1.996205,0 3.629464,6.39693 3.629464,14.2154 0,7.97088 1.992931,15.02405 4.536829,16.05627 3.433113,1.39303 3.237943,2.74306 -0.802256,5.54931 -2.936494,2.03964 -4.072635,4.97488 -2.524753,6.52277 1.547882,1.54788 4.483128,0.41174 6.522766,-2.52476 2.806251,-4.0402 4.156281,-4.23537 5.549305,-0.80225 1.012482,2.49525 6.604546,4.53683 12.426808,4.53683 5.822265,0 10.585936,1.63325 10.585936,3.62946 0,1.9962 -6.533034,3.62946 -14.517854,3.62946 -7.98482,0 -14.517854,1.63326 -14.517854,3.62947 0,1.9962 8.166293,3.62946 18.147318,3.62946 14.077919,0 18.147318,-1.27895 18.147318,-5.70344 0,-8.09237 -9.010772,-16.07334 -18.147318,-16.07334 -4.277581,0 -10.110648,-2.33323 -12.962372,-5.18495 -5.892445,-5.89245 -7.063636,-23.85076 -1.555483,-23.85076 1.996205,0 3.629464,4.89978 3.629464,10.88839 0,9.67857 1.20982,10.88839 10.888391,10.88839 5.988615,0 10.88839,-1.63326 10.88839,-3.62946 0,-1.99621 -1.633258,-3.62947 -3.629463,-3.62947 -1.996205,0 -3.629464,-4.89977 -3.629464,-10.88839 0,-5.98861 1.633259,-10.88839 3.629464,-10.88839 1.996205,0 3.629463,-4.89977 3.629463,-10.88839 0,-5.98861 1.633259,-10.88839 3.629464,-10.88839 1.996205,0 3.629464,4.89978 3.629464,10.88839 0,5.98862 -1.633259,10.88839 -3.629464,10.88839 -1.996205,0 -3.629464,4.89978 -3.629464,10.88839 0,9.67857 1.20982,10.88839 10.888391,10.88839 h 10.888391 v -25.10379 c 0,-16.79923 -1.500823,-25.639795 -4.53683,-26.724082 -2.495256,-0.891164 -3.389661,-2.854962 -1.987563,-4.363998 6.504834,-7.000963 13.78332,9.25584 13.78332,30.78563 0,22.92895 -4.790841,32.66517 -16.073337,32.66517 -3.136895,0 -5.703444,1.63326 -5.703444,3.62946 0,1.99621 1.633258,3.62947 3.629463,3.62947 1.996205,0 3.629464,6.53303 3.629464,14.51785 v 14.51786 h -32.665172 c -30.245534,0 -32.665174,-0.5377 -32.665174,-7.25893 z m 7.25893,-47.18303 c 0,-5.98861 -1.63326,-10.88839 -3.62947,-10.88839 -1.9962,0 -3.62946,4.89978 -3.62946,10.88839 0,5.98862 1.63326,10.88839 3.62946,10.88839 1.99621,0 3.62947,-4.89977 3.62947,-10.88839 z"
         id="path1238" /><path
         style="fill:#2f1e4b;stroke-width:3.62946"
         d="m -108.02515,184.19926 c 0,-8.00583 5.71571,-9.88619 8.274314,-2.7221 0.942454,2.63887 2.966943,3.19018 4.839285,1.31784 1.872341,-1.87234 1.321031,-3.89683 -1.317841,-4.83928 -2.495256,-0.89117 -4.536828,-6.02341 -4.536828,-11.405 0,-5.62107 -3.08885,-12.01101 -7.25893,-15.01663 -7.47888,-5.39048 -10.33828,-25.40625 -3.62946,-25.40625 1.9962,0 3.62946,-4.76367 3.62946,-10.58593 0,-5.82227 2.04157,-11.31878 4.53683,-12.21448 3.03277,-1.08864 1.64541,-4.197026 -4.18481,-9.376111 l -8.72163,-7.747576 8.36961,-7.258927 8.369615,-7.258927 -7.814275,-6.77728 c -8.02917,-6.96367 -10.64966,-18.628966 -4.1848,-18.628966 1.9962,0 3.62946,3.266518 3.62946,7.258927 0,3.99241 1.63326,7.258928 3.62946,7.258928 1.99621,0 3.62947,-1.633259 3.62947,-3.629464 0,-1.996205 3.266516,-3.629464 7.258926,-3.629464 3.99241,0 7.258927,1.633259 7.258927,3.629464 0,5.508154 17.958313,4.336962 23.850762,-1.555483 7.033447,-7.033447 6.522455,-9.332908 -2.073981,-9.332908 -3.99241,0 -7.258927,-1.633258 -7.258927,-3.629463 0,-1.996205 3.266517,-3.629464 7.258927,-3.629464 3.99241,0 7.258927,1.633259 7.258927,3.629464 0,1.996205 1.633259,3.629463 3.629464,3.629463 6.474121,0 3.839261,-11.669726 -4.21135,-18.651987 -4.312449,-3.740166 -6.861323,-7.779796 -5.664166,-8.976955 3.190353,-3.19035 20.763907,15.446109 20.763907,22.019771 0,3.189529 3.131301,5.609171 7.258927,5.609171 4.179382,0 7.258927,2.419644 7.258927,5.703445 0,7.183728 -10.372325,17.864949 -13.78332,14.193794 -1.402098,-1.509037 -0.507693,-3.472834 1.987563,-4.363998 8.269185,-2.95328 4.699891,-8.274314 -5.550324,-8.274314 -5.923531,0 -12.246714,2.996232 -15.319091,7.258928 -5.390476,7.478883 -25.406245,10.33828 -25.406245,3.629463 0,-1.996205 -1.633259,-3.629463 -3.629464,-3.629463 -1.996205,0 -3.629463,2.666628 -3.629463,5.925843 0,3.259211 -3.445066,8.91373 -7.655706,12.565595 -6.8889,5.974714 -7.09663,7.198823 -2.07397,12.221475 8.660406,8.660409 34.61445,7.293668 42.899518,-2.259091 3.740165,-4.312449 7.779795,-6.861323 8.976955,-5.664166 6.176175,6.176178 -16.943526,20.763906 -32.908161,20.763906 -15.910982,0 -16.497562,0.38714 -16.497562,10.88839 0,5.98862 1.633257,10.88839 3.629462,10.88839 1.996205,0 3.629464,6.39693 3.629464,14.2154 0,7.97088 1.992931,15.02405 4.536829,16.05627 3.433113,1.39303 3.237943,2.74306 -0.802256,5.54931 -2.936494,2.03964 -4.072635,4.97488 -2.524753,6.52277 1.547882,1.54788 4.483128,0.41174 6.522766,-2.52476 2.806251,-4.0402 4.156281,-4.23537 5.549305,-0.80225 1.012482,2.49525 6.604546,4.53683 12.426808,4.53683 5.822265,0 10.585936,1.63325 10.585936,3.62946 0,1.9962 -6.533034,3.62946 -14.517854,3.62946 -7.98482,0 -14.517854,1.63326 -14.517854,3.62947 0,1.9962 8.166293,3.62946 18.147318,3.62946 14.077919,0 18.147318,-1.27895 18.147318,-5.70344 0,-8.09237 -9.010772,-16.07334 -18.147318,-16.07334 -4.277581,0 -10.110648,-2.33323 -12.962372,-5.18495 -5.892445,-5.89245 -7.063636,-23.85076 -1.555483,-23.85076 1.996205,0 3.629464,4.89978 3.629464,10.88839 0,9.67857 1.20982,10.88839 10.888391,10.88839 5.988615,0 10.88839,-1.63326 10.88839,-3.62946 0,-1.99621 -1.633258,-3.62947 -3.629463,-3.62947 -1.996205,0 -3.629464,-4.89977 -3.629464,-10.88839 0,-5.98861 1.633259,-10.88839 3.629464,-10.88839 1.996205,0 3.629463,-4.89977 3.629463,-10.88839 0,-5.98861 1.633259,-10.88839 3.629464,-10.88839 1.996205,0 3.629464,4.89978 3.629464,10.88839 0,5.98862 -1.633259,10.88839 -3.629464,10.88839 -1.996205,0 -3.629464,4.89978 -3.629464,10.88839 0,9.67857 1.20982,10.88839 10.888391,10.88839 h 10.888391 v -25.10379 c 0,-16.79923 -1.500823,-25.639795 -4.53683,-26.724082 -2.495256,-0.891164 -3.389661,-2.854962 -1.987563,-4.363998 6.504834,-7.000963 13.78332,9.25584 13.78332,30.78563 0,22.92895 -4.790841,32.66517 -16.073337,32.66517 -3.136895,0 -5.703444,1.63326 -5.703444,3.62946 0,1.99621 1.633258,3.62947 3.629463,3.62947 1.996205,0 3.629464,6.53303 3.629464,14.51785 v 14.51786 h -32.665172 c -30.245534,0 -32.665174,-0.5377 -32.665174,-7.25893 z m 7.25893,-47.18303 c 0,-5.98861 -1.63326,-10.88839 -3.62947,-10.88839 -1.9962,0 -3.62946,4.89978 -3.62946,10.88839 0,5.98862 1.63326,10.88839 3.62946,10.88839 1.99621,0 3.62947,-4.89977 3.62947,-10.88839 z"
         id="path1236" /><path
         style="fill:#341e2a;stroke-width:3.62946"
         d="m -108.02515,184.19926 c 0,-8.00583 5.71571,-9.88619 8.274314,-2.7221 0.942454,2.63887 2.966943,3.19018 4.839285,1.31784 1.872341,-1.87234 1.321031,-3.89683 -1.317841,-4.83928 -2.495256,-0.89117 -4.536828,-6.02341 -4.536828,-11.405 0,-5.62107 -3.08885,-12.01101 -7.25893,-15.01663 -7.47888,-5.39048 -10.33828,-25.40625 -3.62946,-25.40625 1.9962,0 3.62946,-4.76367 3.62946,-10.58593 0,-5.82227 2.04157,-11.31878 4.53683,-12.21448 3.03277,-1.08864 1.64541,-4.197026 -4.18481,-9.376111 l -8.72163,-7.747576 7.81427,-6.777279 c 4.29785,-3.727507 7.81427,-9.443912 7.81427,-12.703123 0,-3.259215 1.633257,-5.925843 3.629462,-5.925843 6.409128,0 3.874961,11.638764 -4.026242,18.491438 -6.8889,5.974714 -7.09663,7.198823 -2.07397,12.221475 8.660406,8.660409 34.61445,7.293668 42.899518,-2.259091 3.740165,-4.312449 7.779795,-6.861323 8.976955,-5.664166 6.176175,6.176178 -16.943526,20.763906 -32.908161,20.763906 -15.910982,0 -16.497562,0.38714 -16.497562,10.88839 0,5.98862 1.633257,10.88839 3.629462,10.88839 1.996205,0 3.629464,6.39693 3.629464,14.2154 0,7.97088 1.992931,15.02405 4.536829,16.05627 3.433113,1.39303 3.237943,2.74306 -0.802256,5.54931 -2.936494,2.03964 -4.072635,4.97488 -2.524753,6.52277 1.547882,1.54788 4.483128,0.41174 6.522766,-2.52476 2.806251,-4.0402 4.156281,-4.23537 5.549305,-0.80225 1.012482,2.49525 6.604546,4.53683 12.426808,4.53683 5.822265,0 10.585936,1.63325 10.585936,3.62946 0,1.9962 -6.533034,3.62946 -14.517854,3.62946 -7.98482,0 -14.517854,1.63326 -14.517854,3.62947 0,1.9962 8.166293,3.62946 18.147318,3.62946 14.077919,0 18.147318,-1.27895 18.147318,-5.70344 0,-8.09237 -9.010772,-16.07334 -18.147318,-16.07334 -4.277581,0 -10.110648,-2.33323 -12.962372,-5.18495 -5.892445,-5.89245 -7.063636,-23.85076 -1.555483,-23.85076 1.996205,0 3.629464,4.89978 3.629464,10.88839 0,9.67857 1.20982,10.88839 10.888391,10.88839 5.988615,0 10.88839,-1.63326 10.88839,-3.62946 0,-1.99621 -1.633258,-3.62947 -3.629463,-3.62947 -1.996205,0 -3.629464,-4.89977 -3.629464,-10.88839 0,-5.98861 1.633259,-10.88839 3.629464,-10.88839 1.996205,0 3.629463,-4.89977 3.629463,-10.88839 0,-5.98861 1.633259,-10.88839 3.629464,-10.88839 1.996205,0 3.629464,4.89978 3.629464,10.88839 0,5.98862 -1.633259,10.88839 -3.629464,10.88839 -1.996205,0 -3.629464,4.89978 -3.629464,10.88839 0,9.67857 1.20982,10.88839 10.888391,10.88839 h 10.888391 v -25.10379 c 0,-16.79923 -1.500823,-25.639795 -4.53683,-26.724082 -2.495256,-0.891164 -3.389661,-2.854962 -1.987563,-4.363998 6.504834,-7.000963 13.78332,9.25584 13.78332,30.78563 0,22.92895 -4.790841,32.66517 -16.073337,32.66517 -3.136895,0 -5.703444,1.63326 -5.703444,3.62946 0,1.99621 1.633258,3.62947 3.629463,3.62947 1.996205,0 3.629464,6.53303 3.629464,14.51785 v 14.51786 h -32.665172 c -30.245534,0 -32.665174,-0.5377 -32.665174,-7.25893 z m 7.25893,-47.18303 c 0,-5.98861 -1.63326,-10.88839 -3.62947,-10.88839 -1.9962,0 -3.62946,4.89978 -3.62946,10.88839 0,5.98862 1.63326,10.88839 3.62946,10.88839 1.99621,0 3.62947,-4.89977 3.62947,-10.88839 z m 58.071416,-72.589269 c 0,-1.996205 1.633258,-3.629463 3.629463,-3.629463 1.996205,0 3.629464,-1.633259 3.629464,-3.629464 0,-1.996205 -3.266517,-3.629464 -7.258927,-3.629464 -3.99241,0 -7.258927,-1.633258 -7.258927,-3.629463 0,-1.996205 4.899775,-3.629464 10.88839,-3.629464 12.040321,0 14.663679,7.631597 5.703445,16.591835 -6.080546,6.080542 -9.332908,6.622603 -9.332908,1.555483 z"
         id="path1234" /><path
         style="fill:#242f11;stroke-width:3.62946"
         d="m -108.02515,184.19926 c 0,-3.99241 1.63326,-7.25893 3.62946,-7.25893 1.99621,0 3.62947,-3.26651 3.62947,-7.25892 0,-3.99241 1.633257,-7.25893 3.629462,-7.25893 5.260537,0 4.465257,13.61444 -0.907366,15.53324 -2.495256,0.89116 -3.223076,3.02154 -1.617387,4.73417 1.605693,1.71263 4.588238,0.71129 6.627876,-2.2252 2.806251,-4.0402 4.15628,-4.23537 5.549305,-0.80226 1.121805,2.76469 8.811288,4.53683 19.685735,4.53683 17.407985,0 17.844864,-0.26657 17.844864,-10.88839 0,-5.98862 1.633258,-10.88839 3.629463,-10.88839 1.996205,0 3.629464,6.53303 3.629464,14.51785 v 14.51786 h -32.665172 c -30.245534,0 -32.665174,-0.5377 -32.665174,-7.25893 z m 21.776783,-14.51785 c 0,-3.99241 1.633258,-7.25893 3.629463,-7.25893 1.996205,0 3.629464,3.26652 3.629464,7.25893 0,3.99241 -1.633259,7.25892 -3.629464,7.25892 -1.996205,0 -3.629463,-3.26651 -3.629463,-7.25892 z m -24.498883,-19.94692 c -5.40651,-6.14075 -6.07784,-23.60665 -0.90736,-23.60665 1.9962,0 3.62946,4.89978 3.62946,10.88839 0,5.98862 1.63326,10.88839 3.62946,10.88839 1.99621,0 3.62947,1.63326 3.62947,3.62947 0,5.10927 -4.63382,4.27378 -9.98103,-1.7996 z m 50.812494,0 c -8.547917,-9.70877 0.577727,-38.31597 9.24649,-28.98603 1.402098,1.50904 0.507693,3.47283 -1.987563,4.364 -2.495256,0.89116 -4.53683,6.38397 -4.53683,12.20623 0,9.34251 1.278954,10.58593 10.888391,10.58593 10.283479,0 10.888391,-0.80654 10.888391,-14.51785 0,-7.98482 1.633258,-14.51785 3.629463,-14.51785 5.569245,0 4.306878,25.24732 -1.555482,31.10968 -6.586914,6.58692 -20.672525,6.45752 -26.57286,-0.24411 z m -47.508164,-54.878734 -8.49143,-9.05133 7.58407,-6.577623 c 4.17123,-3.617693 7.58406,-9.244251 7.58406,-12.503462 0,-3.259215 1.633257,-5.925843 3.629462,-5.925843 6.409128,0 3.874961,11.638764 -4.026242,18.491438 -6.8889,5.974714 -7.09663,7.198823 -2.07397,12.221475 8.660406,8.660409 34.61445,7.293668 42.899518,-2.259091 3.740165,-4.312449 7.779795,-6.861323 8.976955,-5.664166 1.197157,1.19716 -2.005482,6.358787 -7.116975,11.470281 -12.853016,12.853015 -36.810869,12.754335 -48.965448,-0.20169 z m 64.748116,-30.428795 c 0,-1.996205 1.633258,-3.629463 3.629463,-3.629463 1.996205,0 3.629464,-1.633259 3.629464,-3.629464 0,-1.996205 -3.266517,-3.629464 -7.258927,-3.629464 -3.99241,0 -7.258927,-1.633258 -7.258927,-3.629463 0,-1.996205 4.899775,-3.629464 10.88839,-3.629464 12.040321,0 14.663679,7.631597 5.703445,16.591835 -6.080546,6.080542 -9.332908,6.622603 -9.332908,1.555483 z"
         id="path1232" /><path
         style="fill:#13161c;stroke-width:3.62946"
         d="m -108.02515,185.75474 c 0,-9.52433 10.828165,-18.36725 14.847233,-12.12513 2.824946,4.3875 3.794238,4.35674 6.732205,-0.21363 1.887666,-2.93649 4.745868,-3.93784 6.351561,-2.2252 1.605693,1.71263 0.87787,3.843 -1.617387,4.73417 -10.589058,3.7818 -3.199292,8.27431 13.610489,8.27431 17.744044,0 18.147318,-0.24198 18.147318,-10.88839 0,-5.98862 1.633258,-10.88839 3.629463,-10.88839 1.996205,0 3.629464,6.53303 3.629464,14.51785 v 14.51786 h -32.665172 c -27.275974,0 -32.665174,-0.94097 -32.665174,-5.70345 z"
         id="path1230" /></g></g></svg>
