<?xml version="1.0" encoding="UTF-8" standalone="no"?>
<!-- Created with Inkscape (http://www.inkscape.org/) -->

<svg
   width="200mm"
   height="200mm"
   viewBox="0 0 200 200"
   version="1.1"
   id="svg5"
   xml:space="preserve"
   inkscape:version="1.2.2 (732a01da63, 2022-12-09)"
   sodipodi:docname="goblin.svg"
   xmlns:inkscape="http://www.inkscape.org/namespaces/inkscape"
   xmlns:sodipodi="http://sodipodi.sourceforge.net/DTD/sodipodi-0.dtd"
   xmlns="http://www.w3.org/2000/svg"
   xmlns:svg="http://www.w3.org/2000/svg"><sodipodi:namedview
     id="namedview7"
     pagecolor="#505050"
     bordercolor="#eeeeee"
     borderopacity="1"
     inkscape:showpageshadow="0"
     inkscape:pageopacity="0"
     inkscape:pagecheckerboard="0"
     inkscape:deskcolor="#505050"
     inkscape:document-units="mm"
     showgrid="false"
     inkscape:zoom="1.28"
     inkscape:cx="334.76563"
     inkscape:cy="405.07813"
     inkscape:window-width="2560"
     inkscape:window-height="1411"
     inkscape:window-x="-9"
     inkscape:window-y="-9"
     inkscape:window-maximized="1"
     inkscape:current-layer="layer1" /><defs
     id="defs2" /><g
     inkscape:label="Layer 1"
     inkscape:groupmode="layer"
     id="layer1"><path
       id="path1458"
       style="fill:#00ff00;fill-opacity:1;stroke:#008000;stroke-width:8.55771;stroke-opacity:1"
       d="M 170.40984,50.937797 C 210.8387,60.382999 190.52789,158.29725 152.15411,174.14524 111.22986,191.04657 85.623435,75.754025 45.641741,94.778035 20.527074,106.72805 80.708845,179.63156 42.123506,178.14208 20.906149,177.32304 11.004094,138.82434 13.859783,100.91354 16.197377,69.880741 27.083474,39.241879 47.30925,29.986612 c 40.111695,-18.355016 60.84698,95.597198 103.10818,82.954178 20.80446,-6.22393 -1.15368,-66.943251 19.99241,-62.002993 z"
       sodipodi:nodetypes="aaasssaa" /><path
       id="path3057"
       style="fill:#ffffff;stroke-width:15.7685"
       d="m 81.425519,68.791588 c -4.172085,6.125535 -15.755199,11.936797 -25.611962,11.936797 -9.856764,0 -20.744531,-7.201957 -23.699758,-12.921871 4.11414,-5.893751 13.842994,-13.037763 23.699758,-13.037763 9.856763,0 22.714681,7.375795 25.611962,14.022837 z"
       sodipodi:nodetypes="cscsc" /><path
       id="path4098"
       style="stroke-width:8.151;fill:#000000;fill-opacity:1"
       d="m 61.369564,70.078148 a 3.4258153,8.0333519 0 0 1 -3.425816,8.033352 3.4258153,8.0333519 0 0 1 -3.425815,-8.033352 3.4258153,8.0333519 0 0 1 3.425815,-8.033352 3.4258153,8.0333519 0 0 1 3.425816,8.033352 z" /><path
       id="path3057-3"
       style="fill:#ffffff;stroke-width:15.7685"
       d="m 168.32461,138.89094 c -4.17208,6.12553 -15.7552,11.93679 -25.61196,11.93679 -9.85677,0 -20.74453,-7.20195 -23.69976,-12.92187 4.11414,-5.89375 13.84299,-13.03776 23.69976,-13.03776 9.85676,0 22.71468,7.37579 25.61196,14.02284 z"
       sodipodi:nodetypes="cscsc" /><path
       id="path4098-6"
       style="stroke-width:8.151;fill:#000000;fill-opacity:1"
       d="m 148.27736,140.17749 a 3.4345264,8.0333519 0 0 1 -3.43453,8.03335 3.4345264,8.0333519 0 0 1 -3.43452,-8.03335 3.4345264,8.0333519 0 0 1 3.43452,-8.03335 3.4345264,8.0333519 0 0 1 3.43453,8.03335 z" /></g></svg>
