<?xml version="1.0" encoding="UTF-8" standalone="no"?>
<!-- Created with Inkscape (http://www.inkscape.org/) -->

<svg
   width="200mm"
   height="200mm"
   viewBox="0 0 200 200"
   version="1.1"
   id="svg5"
   xml:space="preserve"
   inkscape:version="1.2.2 (732a01da63, 2022-12-09)"
   sodipodi:docname="goblin.svg"
   xmlns:inkscape="http://www.inkscape.org/namespaces/inkscape"
   xmlns:sodipodi="http://sodipodi.sourceforge.net/DTD/sodipodi-0.dtd"
   xmlns="http://www.w3.org/2000/svg"
   xmlns:svg="http://www.w3.org/2000/svg"><sodipodi:namedview
     id="namedview7"
     pagecolor="#505050"
     bordercolor="#eeeeee"
     borderopacity="1"
     inkscape:showpageshadow="0"
     inkscape:pageopacity="0"
     inkscape:pagecheckerboard="0"
     inkscape:deskcolor="#505050"
     inkscape:document-units="mm"
     showgrid="false"
     inkscape:zoom="1"
     inkscape:cx="336.5"
     inkscape:cy="308.5"
     inkscape:window-width="2560"
     inkscape:window-height="1411"
     inkscape:window-x="-9"
     inkscape:window-y="-9"
     inkscape:window-maximized="1"
     inkscape:current-layer="layer1" /><defs
     id="defs2" /><g
     inkscape:label="Layer 1"
     inkscape:groupmode="layer"
     id="layer1"><g
       id="g586"
       transform="translate(2.8801713,0.75771441)"><path
         style="fill:#dbe77e;stroke-width:5.49587"
         d="M 53.923972,156.06192 41.065933,142.35605 53.074367,131.94119 65.082802,121.52633 51.068576,107.5121 C 43.360752,99.804275 33.232221,93.497873 28.560732,93.497873 c -12.142671,0 -10.495967,-18.113743 2.498123,-27.479354 6.045457,-4.357319 10.99174,-12.322714 10.99174,-17.700876 0,-7.201061 4.345814,-9.778477 16.487611,-9.778477 9.068187,0 16.487612,-2.473142 16.487612,-5.495871 0,-3.022729 7.419425,-5.495871 16.487611,-5.495871 9.068181,0 16.487611,2.473142 16.487611,5.495871 0,3.022729 3.82213,5.495871 8.49362,5.495871 10.99432,0 35.47334,24.479028 35.47334,35.473347 0,4.829705 4.74154,8.493619 10.99174,8.493619 7.32783,0 10.99174,3.663915 10.99174,10.991741 0,6.045458 -2.47314,10.991737 -5.49587,10.991737 -3.02273,0 -5.49587,6.35951 -5.49587,14.13225 0,15.31588 -11.25388,29.83472 -23.12559,29.83472 -4.0827,0 -10.98818,4.94628 -15.3455,10.99174 -12.08983,16.77375 -53.5167,14.78567 -70.564678,-3.3864 z"
         id="path612" /><path
         style="fill:#e49575;stroke-width:5.49587"
         d="m 54.123727,156.26426 c -11.606245,-12.38123 -11.927068,-14.23474 -3.860195,-22.30161 4.83895,-4.83895 10.463555,-7.13263 12.499123,-5.09706 2.035568,2.03557 0.134566,5.90523 -4.224449,8.59925 -4.359014,2.69402 -6.007775,6.81592 -3.663913,9.15979 2.343862,2.34386 6.78852,0.62347 9.877017,-3.82308 4.249329,-6.11782 6.293594,-6.41336 8.402968,-1.21481 3.731573,9.19647 17.31133,8.70279 26.995522,-0.9814 9.00707,-9.00708 10.51803,-25.12398 2.35537,-25.12398 -3.022729,0 -5.495871,4.94628 -5.495871,10.99174 0,17.41021 -15.413817,13.00626 -38.471093,-10.99174 -11.616947,-12.09092 -25.02533,-21.983487 -29.796407,-21.983487 -12.2904,0 -10.768617,-18.047734 2.317056,-27.479354 6.045457,-4.357319 10.99174,-12.322714 10.99174,-17.700876 0,-7.201061 4.345814,-9.778477 16.487611,-9.778477 9.068187,0 16.487612,-2.473142 16.487612,-5.495871 0,-3.022729 7.419425,-5.495871 16.487611,-5.495871 9.068181,0 16.487611,2.473142 16.487611,5.495871 0,3.022729 3.82213,5.495871 8.49362,5.495871 10.99432,0 35.47334,24.479028 35.47334,35.473347 0,4.829705 4.74154,8.493619 10.99174,8.493619 7.32783,0 10.99174,3.663915 10.99174,10.991741 0,6.045458 -2.47314,10.991737 -5.49587,10.991737 -3.02273,0 -5.49587,6.35951 -5.49587,14.13225 0,15.31588 -11.25388,29.83472 -23.12559,29.83472 -4.0827,0 -10.98818,4.94628 -15.3455,10.99174 -12.01419,16.6688 -53.51513,14.79085 -70.364923,-3.18406 z M 151.968,121.43521 c 0,-2.77083 -3.09142,-6.29226 -6.86984,-7.8254 -5.19854,-2.10937 -4.90301,-4.15363 1.21481,-8.40296 4.44655,-3.0885 6.41918,-7.280915 4.38361,-9.316487 -8.04242,-8.042426 -21.78865,13.376937 -14.14385,22.038947 8.18531,9.27444 15.41527,10.91875 15.41527,3.5059 z m -43.96696,-20.0861 c 0,-1.727265 -3.82748,-6.967973 -8.505514,-11.646004 -10.731621,-10.73162 -17.179019,-5.355808 -7.162553,5.972099 7.506117,8.488885 15.668067,11.444595 15.668067,5.673905 z"
         id="path610" /><path
         style="fill:#a8ca59;stroke-width:5.49587"
         d="m 54.123727,156.26426 c -11.606245,-12.38123 -11.927068,-14.23474 -3.860195,-22.30161 4.83895,-4.83895 10.463555,-7.13263 12.499123,-5.09706 2.035568,2.03557 0.134566,5.90523 -4.224449,8.59925 -4.359014,2.69402 -6.007775,6.81592 -3.663913,9.15979 2.343862,2.34386 6.78852,0.62347 9.877017,-3.82308 4.249329,-6.11782 6.293594,-6.41336 8.402968,-1.21481 3.731573,9.19647 17.31133,8.70279 26.995522,-0.9814 9.00707,-9.00708 10.51803,-25.12398 2.35537,-25.12398 -3.022729,0 -5.495871,4.94628 -5.495871,10.99174 0,17.41021 -15.413817,13.00626 -38.471093,-10.99174 -11.616947,-12.09092 -25.02533,-21.983487 -29.796407,-21.983487 -12.2904,0 -10.768617,-18.047734 2.317056,-27.479354 6.045457,-4.357319 10.99174,-12.322714 10.99174,-17.700876 0,-7.201061 4.345814,-9.778477 16.487611,-9.778477 9.068187,0 16.487612,-2.473142 16.487612,-5.495871 0,-3.022729 7.419425,-5.495871 16.487611,-5.495871 9.068181,0 16.487611,2.473142 16.487611,5.495871 0,3.022729 3.82213,5.495871 8.49362,5.495871 10.99432,0 35.47334,24.479028 35.47334,35.473347 0,4.829705 4.74154,8.493619 10.99174,8.493619 7.32783,0 10.99174,3.663915 10.99174,10.991741 0,6.045458 -2.47314,10.991737 -5.49587,10.991737 -3.02273,0 -5.49587,6.35951 -5.49587,14.13225 0,15.31588 -11.25388,29.83472 -23.12559,29.83472 -4.0827,0 -10.98818,4.94628 -15.3455,10.99174 -12.01419,16.6688 -53.51513,14.79085 -70.364923,-3.18406 z M 151.968,126.93109 c 0,-5.79356 -3.09142,-11.78814 -6.86984,-13.32128 -5.19854,-2.10937 -4.90301,-4.15363 1.21481,-8.40296 4.44655,-3.0885 6.41918,-7.280915 4.38361,-9.316487 -2.03557,-2.035566 -8.12472,0.722652 -13.53144,6.129377 -7.01827,7.01827 -7.87923,10.48081 -3.00964,12.104 3.75142,1.25048 6.82076,7.01379 6.82076,12.80735 0,5.79356 2.47314,10.53375 5.49587,10.53375 3.02273,0 5.49587,-4.74019 5.49587,-10.53375 z M 64.034077,93.497873 c 0,-6.045458 -2.473142,-10.991741 -5.495871,-10.991741 -3.022728,0 -5.49587,4.946283 -5.49587,10.991741 0,6.045458 2.473142,10.991737 5.49587,10.991737 3.022729,0 5.495871,-4.946279 5.495871,-10.991737 z m 43.966963,0 c 0,-7.327826 -3.66392,-10.991741 -10.991741,-10.991741 -7.327825,0 -10.991741,3.663915 -10.991741,10.991741 0,7.327827 3.663916,10.991737 10.991741,10.991737 7.327821,0 10.991741,-3.66391 10.991741,-10.991737 z M 86.017558,68.373892 c 0,-1.727273 -3.533058,-6.673557 -7.851241,-10.991741 -9.007079,-9.007077 -25.123981,-10.518037 -25.123981,-2.355373 0,3.022729 4.946283,5.495871 10.991741,5.495871 6.045457,0 10.991741,2.473141 10.991741,5.49587 0,3.022729 2.473141,5.495871 5.49587,5.495871 3.022729,0 5.49587,-1.413224 5.49587,-3.140498 z"
         id="path608" /><path
         style="fill:#bf6493;stroke-width:5.49587"
         d="M 53.923972,156.06192 41.065933,142.35605 53.074367,131.94119 65.082802,121.52633 51.068576,107.5121 C 43.360752,99.804275 33.232221,93.497873 28.560732,93.497873 c -12.142671,0 -10.495967,-18.113743 2.498123,-27.479354 6.045457,-4.357319 10.99174,-12.322714 10.99174,-17.700876 0,-7.201061 4.345814,-9.778477 16.487611,-9.778477 9.068187,0 16.487612,-2.473142 16.487612,-5.495871 0,-3.022729 7.419425,-5.495871 16.487611,-5.495871 9.068181,0 16.487611,2.473142 16.487611,5.495871 0,3.022729 3.82213,5.495871 8.49362,5.495871 10.99432,0 35.47334,24.479028 35.47334,35.473347 0,4.829705 4.74154,8.493619 10.99174,8.493619 7.32783,0 10.99174,3.663915 10.99174,10.991741 0,6.045458 -2.47314,10.991737 -5.49587,10.991737 -3.02273,0 -5.49587,6.35951 -5.49587,14.13225 0,15.31588 -11.25388,29.83472 -23.12559,29.83472 -4.0827,0 -10.98818,4.94628 -15.3455,10.99174 -12.08983,16.77375 -53.5167,14.78567 -70.564678,-3.3864 z m 63.153578,-10.68636 c 7.74002,-7.74001 12.2353,-15.77772 9.98952,-17.86158 -2.24578,-2.08385 -5.18732,-0.69739 -6.53675,3.08102 -3.87434,10.84815 -12.52928,8.00083 -12.52928,-4.1219 0,-6.04546 -2.47314,-10.99174 -5.49587,-10.99174 -3.022729,0 -5.495871,4.94628 -5.495871,10.99174 0,6.04546 -2.473142,10.99174 -5.49587,10.99174 -3.022729,0 -5.495871,-2.47314 -5.495871,-5.49587 0,-8.16267 -16.116902,-6.6517 -25.123979,2.35537 -10.650309,10.65031 -9.876547,14.13224 3.140498,14.13224 6.045457,0 10.991741,2.47314 10.991741,5.49587 0,10.93957 28.309242,5.1656 42.051732,-8.57689 z M 151.968,126.4731 c 0,-6.04546 -2.47314,-10.99174 -5.49587,-10.99174 -3.02273,0 -5.49587,-2.47315 -5.49587,-5.49587 0,-3.02273 4.94629,-5.49588 10.99174,-5.49588 6.04546,0 10.99174,-2.47314 10.99174,-5.495866 0,-8.681547 -16.36406,-6.404547 -26.44887,3.680276 -6.67309,6.67308 -7.31558,9.79632 -2.35537,11.44972 3.75142,1.25048 6.82076,7.01379 6.82076,12.80735 0,5.79356 2.47314,10.53375 5.49587,10.53375 3.02273,0 5.49587,-4.94628 5.49587,-10.99174 z M 64.034077,93.497873 c 0,-6.045458 -2.473142,-10.991741 -5.495871,-10.991741 -3.022728,0 -5.49587,4.946283 -5.49587,10.991741 0,6.045458 2.473142,10.991737 5.49587,10.991737 3.022729,0 5.495871,-4.946279 5.495871,-10.991737 z m 43.966963,0 c 0,-7.327826 -3.66392,-10.991741 -10.991741,-10.991741 -7.327825,0 -10.991741,3.663915 -10.991741,10.991741 0,7.327827 3.663916,10.991737 10.991741,10.991737 7.327821,0 10.991741,-3.66391 10.991741,-10.991737 z M 86.017558,68.373892 c 0,-1.727273 -3.533058,-6.673557 -7.851241,-10.991741 -9.007079,-9.007077 -25.123981,-10.518037 -25.123981,-2.355373 0,3.022729 4.946283,5.495871 10.991741,5.495871 6.045457,0 10.991741,2.473141 10.991741,5.49587 0,3.022729 2.473141,5.495871 5.49587,5.495871 3.022729,0 5.49587,-1.413224 5.49587,-3.140498 z"
         id="path606" /><path
         style="fill:#a26c60;stroke-width:5.49587"
         d="M 53.923972,156.06192 41.065933,142.35605 53.074367,131.94119 65.082802,121.52633 51.068576,107.5121 C 43.360752,99.804275 33.232221,93.497873 28.560732,93.497873 c -12.142671,0 -10.495967,-18.113743 2.498123,-27.479354 6.045457,-4.357319 10.99174,-12.322714 10.99174,-17.700876 0,-7.201061 4.345814,-9.778477 16.487611,-9.778477 9.068187,0 16.487612,-2.473142 16.487612,-5.495871 0,-3.022729 7.419425,-5.495871 16.487611,-5.495871 9.068181,0 16.487611,2.473142 16.487611,5.495871 0,3.022729 3.82213,5.495871 8.49362,5.495871 10.99432,0 35.47334,24.479028 35.47334,35.473347 0,4.829705 4.74154,8.493619 10.99174,8.493619 7.32783,0 10.99174,3.663915 10.99174,10.991741 0,6.045458 -2.47314,10.991737 -5.49587,10.991737 -3.02273,0 -5.49587,6.35951 -5.49587,14.13225 0,15.31588 -11.25388,29.83472 -23.12559,29.83472 -4.0827,0 -10.98818,4.94628 -15.3455,10.99174 -12.08983,16.77375 -53.5167,14.78567 -70.564678,-3.3864 z m 63.153578,-10.68636 c 7.74002,-7.74001 12.2353,-15.77772 9.98952,-17.86158 -2.24578,-2.08385 -5.18732,-0.69739 -6.53675,3.08102 -3.87434,10.84815 -12.52928,8.00083 -12.52928,-4.1219 0,-6.04546 -2.47314,-10.99174 -5.49587,-10.99174 -3.022729,0 -5.495871,4.94628 -5.495871,10.99174 0,6.04546 -2.473142,10.99174 -5.49587,10.99174 -3.022729,0 -5.495871,-2.47314 -5.495871,-5.49587 0,-8.16267 -16.116902,-6.6517 -25.123979,2.35537 -10.650309,10.65031 -9.876547,14.13224 3.140498,14.13224 6.045457,0 10.991741,2.47314 10.991741,5.49587 0,10.93957 28.309242,5.1656 42.051732,-8.57689 z M 151.968,126.4731 c 0,-6.04546 -2.47314,-10.99174 -5.49587,-10.99174 -3.02273,0 -5.49587,-2.47315 -5.49587,-5.49587 0,-3.02273 4.94629,-5.49588 10.99174,-5.49588 6.04546,0 10.99174,-2.47314 10.99174,-5.495866 0,-8.681547 -16.36406,-6.404547 -26.44887,3.680276 -6.67309,6.67308 -7.31558,9.79632 -2.35537,11.44972 3.75142,1.25048 6.82076,7.01379 6.82076,12.80735 0,5.79356 2.47314,10.53375 5.49587,10.53375 3.02273,0 5.49587,-4.94628 5.49587,-10.99174 z M 64.034077,95.853244 c 0,-4.749999 -3.533059,-12.169424 -7.851243,-16.48761 -9.007077,-9.007077 -25.123979,-10.518037 -25.123979,-2.355373 0,3.022729 4.946283,5.495871 10.99174,5.495871 7.327827,0 10.991741,3.663915 10.991741,10.991741 0,6.045458 2.473142,10.991737 5.49587,10.991737 3.022729,0 5.495871,-3.88636 5.495871,-8.636366 z m 43.966963,-2.355371 c 0,-7.327826 -3.66392,-10.991741 -10.991741,-10.991741 -7.327825,0 -10.991741,3.663915 -10.991741,10.991741 0,7.327827 3.663916,10.991737 10.991741,10.991737 7.327821,0 10.991741,-3.66391 10.991741,-10.991737 z M 97.009299,66.018519 c 0,-3.022729 -2.473142,-5.49587 -5.49587,-5.49587 -3.022729,0 -5.495871,-2.473142 -5.495871,-5.495871 0,-7.965706 20.615502,-6.761462 23.521022,1.373968 1.34943,3.778411 4.32309,5.13275 6.60813,3.009643 5.559,-5.165055 -10.61491,-20.871223 -21.492782,-20.871223 -4.750003,0 -8.63637,2.473141 -8.63637,5.49587 0,3.022729 -7.419425,5.495871 -16.487611,5.495871 -18.223086,0 -19.777042,2.223639 -9.617773,13.762589 7.833547,8.897384 37.097125,11.046982 37.097125,2.725023 z"
         id="path604" /><path
         style="fill:#7a9a3d;stroke-width:5.49587"
         d="M 53.923972,156.06192 41.065933,142.35605 53.074367,131.94119 65.082802,121.52633 51.068576,107.5121 C 43.360752,99.804275 33.232221,93.497873 28.560732,93.497873 c -12.142671,0 -10.495967,-18.113743 2.498123,-27.479354 6.045457,-4.357319 10.99174,-12.322714 10.99174,-17.700876 0,-7.201061 4.345814,-9.778477 16.487611,-9.778477 9.068187,0 16.487612,-2.473142 16.487612,-5.495871 0,-3.022729 7.419425,-5.495871 16.487611,-5.495871 9.068181,0 16.487611,2.473142 16.487611,5.495871 0,3.022729 3.82213,5.495871 8.49362,5.495871 10.99432,0 35.47334,24.479028 35.47334,35.473347 0,4.829705 4.74154,8.493619 10.99174,8.493619 7.32783,0 10.99174,3.663915 10.99174,10.991741 0,6.045458 -2.47314,10.991737 -5.49587,10.991737 -3.02273,0 -5.49587,6.35951 -5.49587,14.13225 0,15.31588 -11.25388,29.83472 -23.12559,29.83472 -4.0827,0 -10.98818,4.94628 -15.3455,10.99174 -12.08983,16.77375 -53.5167,14.78567 -70.564678,-3.3864 z m 63.153578,-10.68636 c 7.74002,-7.74001 12.2353,-15.77772 9.98952,-17.86158 -2.24578,-2.08385 -5.18732,-0.69739 -6.53675,3.08102 -3.87434,10.84815 -12.52928,8.00083 -12.52928,-4.1219 0,-6.04546 -2.47314,-10.99174 -5.49587,-10.99174 -3.022729,0 -5.495871,4.94628 -5.495871,10.99174 0,6.04546 -2.473142,10.99174 -5.49587,10.99174 -3.022729,0 -5.495871,-2.47314 -5.495871,-5.49587 0,-8.16267 -16.116902,-6.6517 -25.123979,2.35537 -10.650309,10.65031 -9.876547,14.13224 3.140498,14.13224 6.045457,0 10.991741,2.47314 10.991741,5.49587 0,10.93957 28.309242,5.1656 42.051732,-8.57689 z M 151.968,126.4731 c 0,-6.04546 -2.47314,-10.99174 -5.49587,-10.99174 -3.02273,0 -5.49587,-2.47315 -5.49587,-5.49587 0,-3.02273 4.94629,-5.49588 10.99174,-5.49588 6.04546,0 10.99174,-2.47314 10.99174,-5.495866 0,-8.681547 -16.36406,-6.404547 -26.44887,3.680276 -6.67309,6.67308 -7.31558,9.79632 -2.35537,11.44972 3.75142,1.25048 6.82076,7.01379 6.82076,12.80735 0,5.79356 2.47314,10.53375 5.49587,10.53375 3.02273,0 5.49587,-4.94628 5.49587,-10.99174 z M 67.174574,96.638373 c 10.650312,-10.65031 9.876549,-14.132241 -3.140497,-14.132241 -6.045458,0 -10.991741,-2.473142 -10.991741,-5.495871 0,-3.022729 -4.946283,-5.495871 -10.991741,-5.495871 -6.045457,0 -10.99174,2.473142 -10.99174,5.495871 0,3.022729 4.946283,5.495871 10.99174,5.495871 7.327827,0 10.991741,3.663915 10.991741,10.991741 0,13.017047 3.481929,13.790807 14.132238,3.1405 z m 43.966966,0 c 11.44515,-11.445156 9.80304,-14.132241 -8.63637,-14.132241 -12.823696,0 -16.487612,2.442606 -16.487612,10.991741 0,12.867167 13.686493,14.577987 25.123982,3.1405 z M 97.009299,66.018519 c 0,-3.022729 -2.473142,-5.49587 -5.49587,-5.49587 -3.022729,0 -5.495871,-2.473142 -5.495871,-5.495871 0,-7.965706 20.615502,-6.761462 23.521022,1.373968 1.34943,3.778411 4.32309,5.13275 6.60813,3.009643 5.559,-5.165055 -10.61491,-20.871223 -21.492782,-20.871223 -4.750003,0 -8.63637,2.473141 -8.63637,5.49587 0,3.022729 -7.419425,5.495871 -16.487611,5.495871 -18.223086,0 -19.777042,2.223639 -9.617773,13.762589 7.833547,8.897384 37.097125,11.046982 37.097125,2.725023 z"
         id="path602" /><path
         style="fill:#90366b;stroke-width:5.49587"
         d="M 53.923972,156.06192 41.065933,142.35605 53.074367,131.94119 65.082802,121.52633 51.068576,107.5121 C 43.360752,99.804275 33.232221,93.497873 28.560732,93.497873 c -12.142671,0 -10.495967,-18.113743 2.498123,-27.479354 6.045457,-4.357319 10.99174,-12.322714 10.99174,-17.700876 0,-7.201061 4.345814,-9.778477 16.487611,-9.778477 9.068187,0 16.487612,-2.473142 16.487612,-5.495871 0,-3.022729 7.419425,-5.495871 16.487611,-5.495871 9.068181,0 16.487611,2.473142 16.487611,5.495871 0,3.022729 3.82213,5.495871 8.49362,5.495871 10.99432,0 35.47334,24.479028 35.47334,35.473347 0,4.829705 4.74154,8.493619 10.99174,8.493619 7.32783,0 10.99174,3.663915 10.99174,10.991741 0,6.045458 -2.47314,10.991737 -5.49587,10.991737 -3.02273,0 -5.49587,6.35951 -5.49587,14.13225 0,15.31588 -11.25388,29.83472 -23.12559,29.83472 -4.0827,0 -10.98818,4.94628 -15.3455,10.99174 -12.08983,16.77375 -53.5167,14.78567 -70.564678,-3.3864 z m 68.209308,-4.46484 c 4.31818,-4.31819 7.85124,-14.21075 7.85124,-21.98348 0,-7.77274 2.47314,-14.13224 5.49587,-14.13224 3.02273,0 5.49587,4.94628 5.49587,10.99174 0,6.04546 2.47314,10.99174 5.49587,10.99174 3.02273,0 5.49587,-7.41943 5.49587,-16.48761 0,-9.06819 2.47314,-16.48762 5.49587,-16.48762 3.02273,0 5.49587,-2.47314 5.49587,-5.495866 0,-3.022729 -4.94628,-5.495871 -10.99174,-5.495871 -6.04545,0 -10.99174,2.473142 -10.99174,5.495871 0,3.022726 -4.94628,5.495866 -10.99174,5.495866 -7.32782,0 -10.99174,3.66392 -10.99174,10.99175 0,6.04545 -2.47314,10.99174 -5.49587,10.99174 -3.02273,0 -5.49587,-2.47314 -5.49587,-5.49587 0,-3.02273 -2.47314,-5.49587 -5.49587,-5.49587 -3.022729,0 -5.495871,4.94628 -5.495871,10.99174 0,6.04546 -2.473142,10.99174 -5.49587,10.99174 -3.022729,0 -5.495871,-4.94628 -5.495871,-10.99174 0,-14.25896 -3.129497,-13.85774 -19.485358,2.49812 -16.355864,16.35586 -16.757081,19.48536 -2.498123,19.48536 6.045457,0 10.991741,2.47314 10.991741,5.49587 0,8.43316 38.230452,6.52164 47.107462,-2.35537 z M 67.174574,96.638373 c 10.650312,-10.65031 9.876549,-14.132241 -3.140497,-14.132241 -6.045458,0 -10.991741,-2.473142 -10.991741,-5.495871 0,-3.022729 -4.946283,-5.495871 -10.991741,-5.495871 -6.045457,0 -10.99174,2.473142 -10.99174,5.495871 0,3.022729 4.946283,5.495871 10.99174,5.495871 7.327827,0 10.991741,3.663915 10.991741,10.991741 0,13.017047 3.481929,13.790807 14.132238,3.1405 z m 43.966966,0 c 11.44515,-11.445156 9.80304,-14.132241 -8.63637,-14.132241 -12.823696,0 -16.487612,2.442606 -16.487612,10.991741 0,12.867167 13.686493,14.577987 25.123982,3.1405 z M 97.009299,66.018519 c 0,-3.022729 -2.473142,-5.49587 -5.49587,-5.49587 -3.022729,0 -5.495871,-2.473142 -5.495871,-5.495871 0,-7.965706 20.615502,-6.761462 23.521022,1.373968 1.34943,3.778411 4.32309,5.13275 6.60813,3.009643 5.559,-5.165055 -10.61491,-20.871223 -21.492782,-20.871223 -4.750003,0 -8.63637,2.473141 -8.63637,5.49587 0,3.022729 -7.419425,5.495871 -16.487611,5.495871 -18.223086,0 -19.777042,2.223639 -9.617773,13.762589 7.833547,8.897384 37.097125,11.046982 37.097125,2.725023 z"
         id="path600" /><path
         style="fill:#d22232;stroke-width:5.49587"
         d="M 53.923972,156.06192 41.065933,142.35605 53.074367,131.94119 65.082802,121.52633 51.068576,107.5121 C 43.360752,99.804275 33.232221,93.497873 28.560732,93.497873 c -4.67149,0 -8.493618,-3.886366 -8.493618,-8.63637 0,-10.877872 15.706167,-27.051779 20.871222,-21.492779 2.123107,2.28504 0.768768,5.258698 -3.009643,6.608131 -10.848145,3.874338 -8.000828,12.529277 4.121902,12.529277 6.045458,0 10.991741,-2.473142 10.991741,-5.495871 0,-3.022729 9.686472,-5.495871 21.525493,-5.495871 11.846652,0 22.967018,-3.088991 24.731418,-6.869838 2.564733,-5.495871 3.847113,-5.495871 6.411843,0 3.08801,6.617141 24.27343,9.996635 24.27343,3.872091 0,-1.648762 -6.07043,-9.068187 -13.48986,-16.487613 -14.67835,-14.678348 -28.142341,-17.46245 -32.014637,-6.620026 -1.349434,3.778411 -4.32309,5.132751 -6.60813,3.009643 -5.559,-5.165055 10.614905,-20.871223 21.492777,-20.871223 4.75,0 8.63637,2.473142 8.63637,5.495871 0,3.022729 3.82213,5.495871 8.49362,5.495871 10.99432,0 35.47334,24.479028 35.47334,35.473347 0,4.829705 4.74154,8.493619 10.99174,8.493619 7.32783,0 10.99174,3.663915 10.99174,10.991741 0,6.045458 -2.47314,10.991737 -5.49587,10.991737 -3.02273,0 -5.49587,6.35951 -5.49587,14.13225 0,15.31588 -11.25388,29.83472 -23.12559,29.83472 -4.0827,0 -10.98818,4.94628 -15.3455,10.99174 -12.08983,16.77375 -53.5167,14.78567 -70.564678,-3.3864 z m 68.209308,-4.46484 c 4.31818,-4.31819 7.85124,-14.21075 7.85124,-21.98348 0,-7.77274 2.47314,-14.13224 5.49587,-14.13224 3.02273,0 5.49587,4.94628 5.49587,10.99174 0,6.04546 2.47314,10.99174 5.49587,10.99174 3.02273,0 5.49587,-7.41943 5.49587,-16.48761 0,-9.06819 2.47314,-16.48762 5.49587,-16.48762 3.02273,0 5.49587,-2.47314 5.49587,-5.495866 0,-3.022729 -4.94628,-5.495871 -10.99174,-5.495871 -6.04545,0 -10.99174,2.473142 -10.99174,5.495871 0,3.022726 -4.94628,5.495866 -10.99174,5.495866 -7.32782,0 -10.99174,3.66392 -10.99174,10.99175 0,6.04545 -2.47314,10.99174 -5.49587,10.99174 -3.02273,0 -5.49587,-2.47314 -5.49587,-5.49587 0,-3.02273 -2.47314,-5.49587 -5.49587,-5.49587 -3.022729,0 -5.495871,4.94628 -5.495871,10.99174 0,6.04546 -2.473142,10.99174 -5.49587,10.99174 -3.022729,0 -5.495871,-4.94628 -5.495871,-10.99174 0,-14.25896 -3.129497,-13.85774 -19.485358,2.49812 -16.355864,16.35586 -16.757081,19.48536 -2.498123,19.48536 6.045457,0 10.991741,2.47314 10.991741,5.49587 0,8.43316 38.230452,6.52164 47.107462,-2.35537 z M 67.174574,96.638373 c 10.650312,-10.65031 9.876549,-14.132241 -3.140497,-14.132241 -7.327827,0 -10.991741,3.663915 -10.991741,10.991741 0,13.017047 3.481929,13.790807 14.132238,3.1405 z m 43.966966,0 c 11.44515,-11.445156 9.80304,-14.132241 -8.63637,-14.132241 -12.823696,0 -16.487612,2.442606 -16.487612,10.991741 0,12.867167 13.686493,14.577987 25.123982,3.1405 z"
         id="path598" /><path
         style="fill:#79464b;stroke-width:5.49587"
         d="M 53.923972,156.06192 41.065933,142.35605 53.074367,131.94119 65.082802,121.52633 51.068576,107.5121 C 43.360752,99.804275 33.232221,93.497873 28.560732,93.497873 c -4.67149,0 -8.493618,-3.886366 -8.493618,-8.63637 0,-10.877872 15.706167,-27.051779 20.871222,-21.492779 2.123107,2.28504 0.768768,5.258698 -3.009643,6.608131 -10.848145,3.874338 -8.000828,12.529277 4.121902,12.529277 6.045458,0 10.991741,-2.473142 10.991741,-5.495871 0,-3.022729 9.686472,-5.495871 21.525493,-5.495871 11.846652,0 22.967018,-3.088991 24.731418,-6.869838 2.564733,-5.495871 3.847113,-5.495871 6.411843,0 3.08801,6.617141 24.27343,9.996635 24.27343,3.872091 0,-1.648762 -6.07043,-9.068187 -13.48986,-16.487613 -14.67835,-14.678348 -28.142341,-17.46245 -32.014637,-6.620026 -1.349434,3.778411 -4.32309,5.132751 -6.60813,3.009643 -5.559,-5.165055 10.614905,-20.871223 21.492777,-20.871223 4.75,0 8.63637,2.473142 8.63637,5.495871 0,3.022729 3.82213,5.495871 8.49362,5.495871 10.99432,0 35.47334,24.479028 35.47334,35.473347 0,4.829705 4.74154,8.493619 10.99174,8.493619 7.32783,0 10.99174,3.663915 10.99174,10.991741 0,6.045458 -2.47314,10.991737 -5.49587,10.991737 -3.02273,0 -5.49587,6.35951 -5.49587,14.13225 0,15.31588 -11.25388,29.83472 -23.12559,29.83472 -4.0827,0 -10.98818,4.94628 -15.3455,10.99174 -12.08983,16.77375 -53.5167,14.78567 -70.564678,-3.3864 z m 68.209308,-4.46484 c 4.31818,-4.31819 7.85124,-14.21075 7.85124,-21.98348 0,-7.77274 2.47314,-14.13224 5.49587,-14.13224 3.02273,0 5.49587,4.94628 5.49587,10.99174 0,6.04546 2.47314,10.99174 5.49587,10.99174 3.02273,0 5.49587,-7.41943 5.49587,-16.48761 0,-9.06819 2.47314,-16.48762 5.49587,-16.48762 3.02273,0 5.49587,-2.47314 5.49587,-5.495866 0,-3.022729 -4.94628,-5.495871 -10.99174,-5.495871 -6.04545,0 -10.99174,2.473142 -10.99174,5.495871 0,3.022726 -4.94628,5.495866 -10.99174,5.495866 -7.32782,0 -10.99174,3.66392 -10.99174,10.99175 0,6.04545 -2.47314,10.99174 -5.49587,10.99174 -3.02273,0 -5.49587,-2.47314 -5.49587,-5.49587 0,-10.72445 -28.183335,-5.29152 -41.46884,7.99399 -16.355864,16.35586 -16.757081,19.48536 -2.498123,19.48536 6.045457,0 10.991741,2.47314 10.991741,5.49587 0,8.43316 38.230452,6.52164 47.107462,-2.35537 z M 67.174574,96.638373 c 10.650312,-10.65031 9.876549,-14.132241 -3.140497,-14.132241 -7.327827,0 -10.991741,3.663915 -10.991741,10.991741 0,13.017047 3.481929,13.790807 14.132238,3.1405 z m 43.966966,0 c 11.44515,-11.445156 9.80304,-14.132241 -8.63637,-14.132241 -12.823696,0 -16.487612,2.442606 -16.487612,10.991741 0,12.867167 13.686493,14.577987 25.123982,3.1405 z"
         id="path596" /><path
         style="fill:#5f2867;stroke-width:5.49587"
         d="M 53.923972,156.06192 41.065933,142.35605 53.074367,131.94119 65.082802,121.52633 51.068576,107.5121 C 43.360752,99.804275 33.232221,93.497873 28.560732,93.497873 c -4.67149,0 -8.493618,-3.886366 -8.493618,-8.63637 0,-10.877872 15.706167,-27.051779 20.871222,-21.492779 2.123107,2.28504 0.768768,5.258698 -3.009643,6.608131 -10.848145,3.874338 -8.000828,12.529277 4.121902,12.529277 7.327827,0 10.991741,3.663915 10.991741,10.991741 0,6.045458 2.473142,10.991737 5.49587,10.991737 3.022729,0 5.495871,-2.47314 5.495871,-5.495866 0,-3.022729 4.946283,-5.495871 10.991741,-5.495871 6.045457,0 10.99174,2.473142 10.99174,5.495871 0,8.340656 27.193152,6.567196 36.115722,-2.355371 10.14923,-10.149235 9.92795,-14.132241 -0.78513,-14.132241 -10.87787,0 -27.051777,-15.706168 -21.492776,-20.871224 2.285036,-2.123107 5.258696,-0.768767 6.608126,3.009644 2.35044,6.581213 23.52102,10.066369 23.52102,3.872091 0,-1.648762 -6.07043,-9.068187 -13.48986,-16.487613 -14.67835,-14.678348 -28.142341,-17.46245 -32.014637,-6.620026 -1.349434,3.778411 -4.32309,5.132751 -6.60813,3.009643 -5.559,-5.165055 10.614905,-20.871223 21.492777,-20.871223 4.75,0 8.63637,2.473142 8.63637,5.495871 0,3.022729 3.82213,5.495871 8.49362,5.495871 10.99432,0 35.47334,24.479028 35.47334,35.473347 0,4.829705 4.74154,8.493619 10.99174,8.493619 7.32783,0 10.99174,3.663915 10.99174,10.991741 0,6.045458 -2.47314,10.991737 -5.49587,10.991737 -3.02273,0 -5.49587,6.35951 -5.49587,14.13225 0,15.31588 -11.25388,29.83472 -23.12559,29.83472 -4.0827,0 -10.98818,4.94628 -15.3455,10.99174 -12.08983,16.77375 -53.5167,14.78567 -70.564678,-3.3864 z m 68.209308,-4.46484 c 4.31818,-4.31819 7.85124,-14.21075 7.85124,-21.98348 0,-7.77274 2.47314,-14.13224 5.49587,-14.13224 3.02273,0 5.49587,4.94628 5.49587,10.99174 0,6.04546 2.47314,10.99174 5.49587,10.99174 3.02273,0 5.49587,-7.41943 5.49587,-16.48761 0,-9.06819 2.47314,-16.48762 5.49587,-16.48762 3.02273,0 5.49587,-2.47314 5.49587,-5.495866 0,-3.022729 -4.94628,-5.495871 -10.99174,-5.495871 -6.04545,0 -10.99174,2.473142 -10.99174,5.495871 0,3.022726 -4.94628,5.495866 -10.99174,5.495866 -7.32782,0 -10.99174,3.66392 -10.99174,10.99175 0,6.04545 -2.47314,10.99174 -5.49587,10.99174 -3.02273,0 -5.49587,-2.47314 -5.49587,-5.49587 0,-10.72445 -28.183335,-5.29152 -41.46884,7.99399 -16.355864,16.35586 -16.757081,19.48536 -2.498123,19.48536 6.045457,0 10.991741,2.47314 10.991741,5.49587 0,8.43316 38.230452,6.52164 47.107462,-2.35537 z"
         id="path594" /><path
         style="fill:#695c28;stroke-width:5.49587"
         d="M 53.923972,156.06192 41.065933,142.35605 53.390926,131.66664 65.71592,120.97723 53.883258,110.71482 C 41.725176,100.17016 37.757131,82.506132 47.546466,82.506132 c 3.022728,0 5.49587,4.946283 5.49587,10.991741 0,6.045458 2.473142,10.991737 5.49587,10.991737 3.022729,0 5.495871,-2.47314 5.495871,-5.495866 0,-3.022729 4.946283,-5.495871 10.991741,-5.495871 6.045457,0 10.99174,2.473142 10.99174,5.495871 0,10.724446 28.183332,5.291516 41.468842,-7.993991 16.5733,-16.573308 16.87824,-23.501168 1.61701,-36.737164 -6.53008,-5.663501 -10.38968,-11.780462 -8.5769,-13.593245 4.83096,-4.830948 31.44149,23.389082 31.44149,33.343169 0,4.829705 4.74154,8.493619 10.99174,8.493619 7.32783,0 10.99174,3.663915 10.99174,10.991741 0,6.045458 -2.47314,10.991737 -5.49587,10.991737 -3.02273,0 -5.49587,6.35951 -5.49587,14.13225 0,15.31588 -11.25388,29.83472 -23.12559,29.83472 -4.0827,0 -10.98818,4.94628 -15.3455,10.99174 -12.08983,16.77375 -53.5167,14.78567 -70.564678,-3.3864 z m 68.209308,-4.46484 c 4.31818,-4.31819 7.85124,-14.21075 7.85124,-21.98348 0,-7.77274 2.47314,-14.13224 5.49587,-14.13224 3.02273,0 5.49587,4.94628 5.49587,10.99174 0,6.04546 2.47314,10.99174 5.49587,10.99174 3.02273,0 5.49587,-7.41943 5.49587,-16.48761 0,-9.06819 2.47314,-16.48762 5.49587,-16.48762 3.02273,0 5.49587,-2.47314 5.49587,-5.495866 0,-3.022729 -4.94628,-5.495871 -10.99174,-5.495871 -6.04545,0 -10.99174,2.473142 -10.99174,5.495871 0,3.022726 -4.94628,5.495866 -10.99174,5.495866 -7.32782,0 -10.99174,3.66392 -10.99174,10.99175 0,6.04545 -2.47314,10.99174 -5.49587,10.99174 -3.02273,0 -5.49587,-2.47314 -5.49587,-5.49587 0,-10.72445 -28.183335,-5.29152 -41.46884,7.99399 -16.355864,16.35586 -16.757081,19.48536 -2.498123,19.48536 6.045457,0 10.991741,2.47314 10.991741,5.49587 0,8.43316 38.230452,6.52164 47.107462,-2.35537 z M 108.00104,77.010261 c 0,-3.022729 4.94628,-5.495871 10.99174,-5.495871 6.04546,0 10.99174,2.473142 10.99174,5.495871 0,3.022729 -4.94628,5.495871 -10.99174,5.495871 -6.04546,0 -10.99174,-2.473142 -10.99174,-5.495871 z"
         id="path592" /><path
         style="fill:#2f1d4b;stroke-width:5.49587"
         d="M 53.923972,156.06192 41.065933,142.35605 53.390926,131.66664 65.71592,120.97723 53.883258,110.71482 C 41.725176,100.17016 37.757131,82.506132 47.546466,82.506132 c 3.022728,0 5.49587,4.946283 5.49587,10.991741 0,6.045458 2.473142,10.991737 5.49587,10.991737 3.022729,0 5.495871,-2.47314 5.495871,-5.495866 0,-3.022729 4.946283,-5.495871 10.991741,-5.495871 6.045457,0 10.99174,2.473142 10.99174,5.495871 0,8.340656 27.193152,6.567196 36.115722,-2.355371 10.65031,-10.65031 9.87655,-14.132241 -3.1405,-14.132241 -6.04546,0 -10.99174,-2.473142 -10.99174,-5.495871 0,-3.022729 4.94628,-5.495871 10.99174,-5.495871 6.04546,0 10.99174,2.473142 10.99174,5.495871 0,3.022729 2.47314,5.495871 5.49587,5.495871 9.80336,0 5.81356,-17.67074 -6.37698,-28.243543 -6.53008,-5.663501 -10.38968,-11.780462 -8.5769,-13.593245 4.83096,-4.830948 31.44149,23.389082 31.44149,33.343169 0,4.829705 4.74154,8.493619 10.99174,8.493619 6.32858,0 10.99174,3.663915 10.99174,8.63637 0,10.877868 -15.70616,27.051778 -20.87122,21.492778 -2.12311,-2.28504 -0.76877,-5.2587 3.00965,-6.60813 12.52151,-4.47197 7.11675,-12.529277 -8.40451,-12.529277 -8.96964,0 -18.54444,4.537006 -23.19675,10.991737 -8.16246,11.32481 -38.471092,15.65462 -38.471092,5.49588 0,-3.02273 -2.473141,-5.49588 -5.49587,-5.49588 -3.022729,0 -5.49587,4.03791 -5.49587,8.97314 0,4.93522 -5.216648,13.49751 -11.592551,19.0273 -10.431434,9.04714 -10.745988,10.90073 -3.140497,18.50622 13.11392,13.11392 52.41451,11.04434 64.96007,-3.4208 5.6635,-6.53008 11.78046,-10.38968 13.59324,-8.5769 1.81278,1.81279 -3.03677,9.62872 -10.77679,17.36873 -19.46252,19.46253 -55.7404,19.3131 -74.145318,-0.3054 z"
         id="path590" /><path
         style="fill:#242f11;stroke-width:5.49587"
         d="m 53.923972,156.06192 -12.858039,-13.70587 11.484072,-9.96009 c 6.31624,-5.47804 11.484072,-13.99799 11.484072,-18.93321 0,-4.93523 2.473142,-8.97314 5.49587,-8.97314 9.704943,0 5.867611,17.62386 -6.09668,28.00044 -10.431434,9.04714 -10.745988,10.90073 -3.140497,18.50622 13.11392,13.11392 52.41451,11.04434 64.96007,-3.4208 5.6635,-6.53008 11.78046,-10.38968 13.59324,-8.5769 1.81278,1.81279 -3.03677,9.62872 -10.77679,17.36873 -19.46252,19.46253 -55.7404,19.3131 -74.145318,-0.3054 z M 151.968,109.98549 c 0,-3.02273 2.47314,-5.49588 5.49587,-5.49588 3.02273,0 5.49587,-2.47314 5.49587,-5.495866 0,-3.022729 -4.94628,-5.495871 -10.99174,-5.495871 -6.04545,0 -10.99174,-2.473142 -10.99174,-5.495871 0,-3.022728 7.41943,-5.49587 16.48761,-5.49587 18.23191,0 22.2043,11.556052 8.63637,25.123978 -9.20739,9.20739 -14.13224,10.0282 -14.13224,2.35538 z"
         id="path588" /></g></g></svg>
