<?xml version="1.0" encoding="UTF-8" standalone="no"?>
<!-- Created with Inkscape (http://www.inkscape.org/) -->

<svg
   width="100mm"
   height="100mm"
   viewBox="0 0 100 100"
   version="1.1"
   id="svg5"
   inkscape:version="1.2.1 (9c6d41e410, 2022-07-14)"
   sodipodi:docname="shirtless sunburnt man.svg"
   xmlns:inkscape="http://www.inkscape.org/namespaces/inkscape"
   xmlns:sodipodi="http://sodipodi.sourceforge.net/DTD/sodipodi-0.dtd"
   xmlns="http://www.w3.org/2000/svg"
   xmlns:svg="http://www.w3.org/2000/svg">
  <sodipodi:namedview
     id="namedview7"
     pagecolor="#505050"
     bordercolor="#eeeeee"
     borderopacity="1"
     inkscape:showpageshadow="0"
     inkscape:pageopacity="0"
     inkscape:pagecheckerboard="0"
     inkscape:deskcolor="#505050"
     inkscape:document-units="mm"
     showgrid="false"
     inkscape:zoom="1.28"
     inkscape:cx="60.546875"
     inkscape:cy="147.26563"
     inkscape:window-width="2560"
     inkscape:window-height="1411"
     inkscape:window-x="-9"
     inkscape:window-y="-9"
     inkscape:window-maximized="1"
     inkscape:current-layer="layer1" />
  <defs
     id="defs2" />
  <g
     inkscape:label="Layer 1"
     inkscape:groupmode="layer"
     id="layer1">
    <path
       id="path1167-1"
       style="display:none;fill:#ffaaaa;stroke-width:0.243215"
       d="m 11.848839,79.517616 c 0.09464,-3.681815 0.924333,-2.3301 -10.6021577,-8.141316 -3.2973655,-1.662406 -7.4134706,-0.04823 -4.8949103,2.154381 2.133409,1.865779 -4.964727,0.924634 -6.734494,2.067035 -1.628772,1.051388 -1.313034,2.702126 -1.417763,5.449709 -0.05428,1.424177 1.205786,3.805803 3.0196216,5.122958 2.1659214,1.572831 3.8428576,1.071786 9.54428705,0.310328 5.39895305,-0.721062 3.91914195,-0.619463 7.75333835,-1.258845 5.538182,-0.923533 3.268432,-3.228126 3.332078,-5.70425 z"
       sodipodi:nodetypes="sssssssss" />
    <path
       id="path1167"
       style="display:none;fill:#ffaaaa;stroke-width:0.336575"
       d="M 62.747055,82.216779 C 62.470206,88.010983 44.017124,88.424683 27.472556,87.634183 10.927986,86.843673 2.5570243,85.148313 2.8338723,79.35411 3.0098782,75.670471 9.665361,73.797312 20.374051,73.203279 c 6.135607,-0.340354 15.106883,-0.188224 21.13331,0.09972 6.768308,0.32339 10.065836,-1.937671 15.37181,-1.052858 7.664043,1.278036 6.031476,6.542815 5.867884,9.966638 z"
       sodipodi:nodetypes="sssssss" />
    <path
       id="path1163"
       style="fill:#ffaaaa;stroke-width:0.264583;fill-opacity:1"
       d="m 67.674254,53.934279 c 0,24.07501 -3.64112,33.68147 -15.15446,33.67596 -6.900761,-0.003 -7.354154,-2.07656 -9.235141,-8.49591 -1.588559,-5.42136 -5.10738,-14.15712 -5.10738,-25.18005 0,-13.019372 1.914168,-24.065268 4.159531,-30.948074 1.90669,-5.844656 3.60228,-8.530822 9.319214,-8.527631 14.694126,0.0082 16.018236,15.4007 16.018236,39.475705 z"
       sodipodi:nodetypes="sssssss" />
    <path
       id="circle888"
       style="fill:#ff8080;fill-opacity:1;stroke-width:0.145755"
       d="m 78.757174,50.239839 c 0,13.25189 -10.74278,22.67176 -23.99467,22.67176 -6.628668,0 -16.050219,-2.75487 -20.433409,-4.38745 -5.747042,-2.14056 -3.529949,-11.66116 -3.56127,-18.28431 -0.03387,-7.161193 -0.455062,-15.157274 3.922836,-17.475792 3.317351,-1.756857 9.146865,-1.821727 15.422823,-3.806907 12.75594,-4.034896 28.64369,8.030803 28.64369,21.282699 z"
       sodipodi:nodetypes="sssssss" />
    <path
       id="path716"
       style="stroke-width:0.122533"
       d="m 39.693634,51.216599 c 0,8.91115 2.890768,12.05894 1.417732,12.05894 -1.473035,0 -7.046854,-3.70316 -7.046854,-12.61431 0,-8.911155 6.458179,-11.232752 7.931215,-11.232751 1.473035,-10e-7 -2.302093,2.876965 -2.302093,11.788121 z"
       sodipodi:nodetypes="sssss" />
    <path
       id="path768"
       style="stroke-width:0.188638"
       d="m 50.719947,42.400077 c -0.763705,-2.462684 -2.789142,-4.302275 -2.226243,-4.476835 0.5629,-0.17456 4.01059,1.223975 4.77429,3.686658 0.76371,2.462684 -2.073905,4.832776 -2.636804,5.007337 -0.562899,0.174563 0.852463,-1.754476 0.08876,-4.21716 z"
       sodipodi:nodetypes="sssss" />
    <path
       id="path1104"
       style="fill:#ff8080;stroke-width:0.264583;fill-opacity:1"
       d="m 52.519794,71.578119 c 0,1.55258 -0.25357,3.14192 -2.116669,3.14192 -1.863098,0 -4.630208,-0.39872 -4.630208,-1.9513 0,-1.55258 1.642631,-2.6789 3.505729,-2.6789 1.863098,0 3.241148,-0.0643 3.241148,1.48828 z"
       sodipodi:nodetypes="sssss" />
    <path
       id="path1100"
       style="fill:#ff8080;stroke-width:0.264583;fill-opacity:1"
       d="m 53.152724,28.852913 c 0,1.330629 -1.793711,2.409317 -4.00637,2.409317 -2.212659,0 -4.006373,-1.078688 -4.006373,-2.409317 0,-1.330629 2.852048,-2.80619 5.064706,-2.80619 2.212657,0 2.948037,1.475561 2.948037,2.80619 z"
       sodipodi:nodetypes="sssss" />
    <path
       id="path770"
       style="stroke-width:0.188638"
       d="m 50.28663,57.597309 c 0.4299,-3.00824 -0.438782,-5.95771 0.363416,-5.84307 0.802199,0.11464 2.641388,3.2028 2.211488,6.21105 -0.4299,3.00824 -2.966097,4.79741 -3.768296,4.68277 -0.802198,-0.11464 0.763491,-2.0425 1.193392,-5.05075 z"
       sodipodi:nodetypes="sssss" />
    <path
       id="path880"
       style="fill:#552200;stroke-width:0.264583"
       d="m 79.545704,46.335285 c 0,3.757684 -0.0305,16.844944 -1.67427,19.155554 -1.48042,2.08096 -10.89634,7.43038 -12.81637,8.19212 -2.39109,0.94862 -7.13736,-7.75862 -8.56584,-10.40742 -1.60416,-2.97456 -0.19912,-9.94618 -0.19912,-13.723985 0,-2.780398 1.78117,-10.174073 2.62864,-13.017424 1.32939,-4.460227 2.7689,-10.288969 4.5648,-10.288969 1.88327,-1e-6 9.28321,0.401807 10.46401,5.838626 0.66306,3.052909 5.59815,11.683276 5.59815,14.251498 z"
       sodipodi:nodetypes="sssssssss" />
  </g>
</svg>
