<?xml version="1.0" encoding="UTF-8" standalone="no"?>
<!-- Created with Inkscape (http://www.inkscape.org/) -->

<svg
   width="200mm"
   height="200mm"
   viewBox="0 0 200 200"
   version="1.1"
   id="svg5"
   inkscape:version="1.2.1 (9c6d41e410, 2022-07-14)"
   sodipodi:docname="shirtless sunburnt man.svg"
   xmlns:inkscape="http://www.inkscape.org/namespaces/inkscape"
   xmlns:sodipodi="http://sodipodi.sourceforge.net/DTD/sodipodi-0.dtd"
   xmlns="http://www.w3.org/2000/svg"
   xmlns:svg="http://www.w3.org/2000/svg">
  <sodipodi:namedview
     id="namedview7"
     pagecolor="#505050"
     bordercolor="#eeeeee"
     borderopacity="1"
     inkscape:showpageshadow="0"
     inkscape:pageopacity="0"
     inkscape:pagecheckerboard="0"
     inkscape:deskcolor="#505050"
     inkscape:document-units="mm"
     showgrid="false"
     inkscape:zoom="0.35355339"
     inkscape:cx="175.36248"
     inkscape:cy="567.09964"
     inkscape:window-width="2560"
     inkscape:window-height="1411"
     inkscape:window-x="-9"
     inkscape:window-y="-9"
     inkscape:window-maximized="1"
     inkscape:current-layer="layer1" />
  <defs
     id="defs2" />
  <g
     inkscape:label="Layer 1"
     inkscape:groupmode="layer"
     id="layer1">
    <path
       id="path1163"
       style="fill:#ffaaaa;stroke-width:0.264583"
       d="m 115.82842,103.93428 c 0,24.07501 -3.64112,33.68147 -15.15446,33.67596 -6.900761,-0.003 -7.354154,-2.07656 -9.235141,-8.49591 -1.588559,-5.42136 -5.10738,-14.15712 -5.10738,-25.18005 0,-13.019372 1.914168,-24.065268 4.159531,-30.948074 1.90669,-5.844656 3.60228,-8.530822 9.319214,-8.527631 14.694126,0.0082 16.018236,15.4007 16.018236,39.475705 z"
       sodipodi:nodetypes="sssssss" />
    <path
       id="path1104"
       style="fill:#ffaaaa;stroke-width:0.264583"
       d="m 100.67396,121.57812 c 0,1.55258 -0.25357,3.14192 -2.116669,3.14192 -1.863098,0 -4.630208,-0.39872 -4.630208,-1.9513 0,-1.55258 1.642631,-2.6789 3.505729,-2.6789 1.863098,0 3.241148,-0.0643 3.241148,1.48828 z"
       sodipodi:nodetypes="sssss" />
    <path
       id="path1100"
       style="fill:#ffaaaa;stroke-width:0.264583"
       d="m 101.30689,78.852914 c 0,1.330629 -1.793711,2.409317 -4.00637,2.409317 -2.212659,0 -4.006373,-1.078688 -4.006373,-2.409317 0,-1.330629 2.852048,-2.80619 5.064706,-2.80619 2.212657,0 2.948037,1.475561 2.948037,2.80619 z"
       sodipodi:nodetypes="sssss" />
    <path
       id="circle888"
       style="fill:#ff8080;fill-opacity:1;stroke-width:0.145755"
       d="m 126.91134,100.23984 c 0,13.25189 -10.74278,22.67176 -23.99467,22.67176 -6.628668,0 -16.050219,-2.75487 -20.433409,-4.38745 -5.747042,-2.14056 -3.529949,-11.66116 -3.56127,-18.28431 -0.03387,-7.161193 -0.455062,-15.157274 3.922836,-17.475792 3.317351,-1.756857 9.146865,-1.821727 15.422823,-3.806907 12.75594,-4.034896 28.64369,8.030803 28.64369,21.282699 z"
       sodipodi:nodetypes="sssssss" />
    <path
       id="path716"
       style="stroke-width:0.122533"
       d="m 87.8478,101.2166 c 0,8.91115 2.890768,12.05894 1.417732,12.05894 -1.473035,0 -7.046854,-3.70316 -7.046854,-12.61431 0,-8.911155 6.458179,-11.232752 7.931215,-11.232751 1.473035,-10e-7 -2.302093,2.876965 -2.302093,11.788121 z"
       sodipodi:nodetypes="sssss" />
    <path
       id="path768"
       style="stroke-width:0.188638"
       d="m 98.874113,92.400078 c -0.763705,-2.462684 -2.789142,-4.302275 -2.226243,-4.476835 0.5629,-0.17456 4.01059,1.223975 4.77429,3.686658 0.76371,2.462684 -2.073905,4.832776 -2.636804,5.007337 -0.562899,0.174563 0.852463,-1.754476 0.08876,-4.21716 z"
       sodipodi:nodetypes="sssss" />
    <path
       id="path770"
       style="stroke-width:0.188638"
       d="m 98.440796,107.59731 c 0.4299,-3.00824 -0.438782,-5.95771 0.363416,-5.84307 0.802199,0.11464 2.641388,3.2028 2.211488,6.21105 -0.4299,3.00824 -2.966097,4.79741 -3.768296,4.68277 -0.802198,-0.11464 0.763491,-2.0425 1.193392,-5.05075 z"
       sodipodi:nodetypes="sssss" />
    <path
       id="path880"
       style="fill:#552200;stroke-width:0.264583"
       d="m 127.69987,96.335286 c 0,3.757684 -0.0305,16.844944 -1.67427,19.155554 -1.48042,2.08096 -10.89634,7.43038 -12.81637,8.19212 -2.39109,0.94862 -7.13736,-7.75862 -8.56584,-10.40742 -1.60416,-2.97456 -0.19912,-9.94618 -0.19912,-13.723985 0,-2.780398 1.78117,-10.174073 2.62864,-13.017424 1.32939,-4.460227 2.7689,-10.288969 4.5648,-10.288969 1.88327,-10e-7 9.28321,0.401807 10.46401,5.838626 0.66306,3.052909 5.59815,11.683276 5.59815,14.251498 z"
       sodipodi:nodetypes="sssssssss" />
    <path
       id="path1167"
       style="fill:#ffaaaa;stroke-width:0.277094"
       d="m 105.66556,70.205808 c 0,4.775665 -15.158395,5.840916 -28.794665,5.840916 -13.63627,0 -20.586635,-1.065251 -20.586635,-5.840916 0,-3.036109 5.399449,-4.837981 14.182261,-5.747236 5.032163,-0.520962 12.415552,-0.748355 17.382619,-0.748355 5.578537,0 8.201375,-1.988918 12.59944,-1.469784 6.35264,0.749845 5.21698,5.143413 5.21698,7.965375 z"
       sodipodi:nodetypes="sssssss" />
    <path
       id="path1357"
       style="fill:#00ffff;stroke-width:0.264583"
       d="m 65.331902,35.356455 c 0,12.785967 0.626477,27.281404 -5.682866,27.079903 -9.124842,-0.291419 -5.869956,-14.948746 -5.869956,-27.734713 0,-12.785967 6.197361,-25.1154727 6.197361,-25.1154727 3.321777,-1.285176 5.355461,12.9843157 5.355461,25.7702827 z"
       sodipodi:nodetypes="sssss" />
    <path
       style="fill:none;fill-opacity:1;stroke:#00aaff;stroke-width:0.965;stroke-dasharray:none;stroke-opacity:1"
       d="M 59.976441,9.5861723 C 63.674264,43.972367 59.555306,57.806842 59.555306,57.806842"
       id="path1754" />
    <path
       id="path1332"
       style="fill:#241c1c;stroke-width:0.27953"
       d="m 64.119368,70.062738 c 0,3.982883 -0.293519,4.155729 -1.279466,6.565769 -0.810755,1.981802 -2.461401,1.481777 -3.615325,1.481777 -1.415211,0 -3.674317,0.519701 -4.523632,-2.32008 -0.685342,-2.291518 -0.106577,-5.291757 -0.106577,-8.533032 0,-7.258052 -1.30093,-9.247505 4.960938,-9.45033 6.326223,-0.204908 4.564062,4.997846 4.564062,12.255896 z"
       sodipodi:nodetypes="sssssss" />
    <path
       id="path1332-9"
       style="fill:#241c1c;stroke-width:0.227849"
       d="m 61.218064,57.484881 c 3.568314,0 3.723169,0.217673 5.882353,0.94885 1.775521,0.601254 1.327542,1.825369 1.327542,2.681116 0,1.049518 0.465607,2.724865 -2.078588,3.354715 -2.052999,0.508248 -4.74095,0.07904 -7.644848,0.07904 -6.502578,0 -8.284953,0.964767 -8.466666,-3.679019 -0.18358,-4.691513 4.477631,-3.384699 10.980207,-3.384699 z"
       sodipodi:nodetypes="sssssss" />
  </g>
</svg>
