<?xml version="1.0" encoding="UTF-8" standalone="no"?>
<!-- Created with Inkscape (http://www.inkscape.org/) -->

<svg
   width="200mm"
   height="100mm"
   viewBox="0 0 200 100"
   version="1.1"
   id="svg4660"
   inkscape:version="1.2.1 (9c6d41e410, 2022-07-14)"
   sodipodi:docname="title.svg"
   inkscape:export-filename="..\..\..\..\..\Downloads\gaming.png"
   inkscape:export-xdpi="96"
   inkscape:export-ydpi="96"
   xmlns:inkscape="http://www.inkscape.org/namespaces/inkscape"
   xmlns:sodipodi="http://sodipodi.sourceforge.net/DTD/sodipodi-0.dtd"
   xmlns="http://www.w3.org/2000/svg"
   xmlns:svg="http://www.w3.org/2000/svg">
  <sodipodi:namedview
     id="namedview4662"
     pagecolor="#505050"
     bordercolor="#eeeeee"
     borderopacity="1"
     inkscape:showpageshadow="0"
     inkscape:pageopacity="0"
     inkscape:pagecheckerboard="0"
     inkscape:deskcolor="#505050"
     inkscape:document-units="mm"
     showgrid="false"
     inkscape:zoom="1.28"
     inkscape:cx="384.375"
     inkscape:cy="294.92188"
     inkscape:window-width="2560"
     inkscape:window-height="1411"
     inkscape:window-x="-9"
     inkscape:window-y="-9"
     inkscape:window-maximized="1"
     inkscape:current-layer="layer1" />
  <defs
     id="defs4657">
    <rect
       x="142.09109"
       y="208.76462"
       width="491.85382"
       height="161.76524"
       id="rect4835" />
    <rect
       x="142.09109"
       y="208.76462"
       width="1001.8201"
       height="202.83739"
       id="rect4835-9" />
  </defs>
  <g
     inkscape:label="Layer 1"
     inkscape:groupmode="layer"
     id="layer1">
    <g
       aria-label="Gaming"
       transform="matrix(0.36934118,0,0,0.36934118,-40.886675,-78.960473)"
       id="text4833"
       style="font-size:118.767px;font-family:'Copperplate Gothic Bold';-inkscape-font-specification:'Copperplate Gothic Bold, ';white-space:pre;shape-inside:url(#rect4835);fill:#0075ff;stroke:#6baaff;stroke-width:3.64724">
      <path
         d="m 215.24909,323.42444 h -23.85118 c -1.46269,0 -2.5715,0.33029 -3.32643,0.99086 -0.70775,0.66056 -1.29755,1.84014 -1.76939,3.53874 h -2.26479 v -22.50646 h 2.26479 c 0.47184,1.74578 1.06164,2.94896 1.76939,3.60953 0.75493,0.61338 1.86374,0.92007 3.32643,0.92007 h 45.86222 v 2.2648 c -1.69861,0.47183 -2.90178,1.08522 -3.60953,1.84016 -0.66057,0.75493 -0.99085,1.86374 -0.99085,3.32643 v 19.817 c 0,1.46269 0.33028,2.5715 0.99085,3.32643 0.66057,0.75493 1.86374,1.36832 3.60953,1.84016 l 398.48825,0.22363 -0.018,11.55248 c 0,0 -416.64838,-0.13579 -418.62038,0.38169 -15.33172,4.02326 -19.4963,5.32363 -33.21425,5.32363 -15.6177,0 -28.35721,-3.70389 -38.21852,-11.11168 -12.40923,-9.34231 -18.61384,-22.31774 -18.61384,-38.92627 0,-15.47615 5.52045,-27.79101 16.56136,-36.94458 10.47471,-8.68173 24.3938,-13.0226 41.75727,-13.0226 5.52045,0 10.71062,0.51901 15.5705,1.55704 4.90707,0.99085 10.47472,2.68946 16.70293,5.09581 3.20846,1.27395 5.49685,1.91092 6.86517,1.91092 0.99085,0 2.14684,-0.54261 3.46797,-1.62783 l 1.98171,1.06164 -11.32401,23.14343 -2.05248,-1.06162 c -0.0472,-1.55705 -0.25953,-2.66586 -0.63698,-3.32643 -0.37746,-0.70775 -1.22676,-1.55705 -2.5479,-2.5479 -2.87818,-2.17043 -7.10109,-4.01058 -12.66872,-5.52045 -5.56764,-1.55705 -10.82859,-2.33558 -15.78284,-2.33558 -10.09723,0 -18.47228,2.831 -25.12514,8.493 -7.50215,6.41693 -11.25323,14.88635 -11.25323,25.40824 0,10.19161 3.65671,18.42511 10.97013,24.7005 6.70003,5.75637 15.52332,8.63455 26.46987,8.63455 5.33172,0 10.59266,-0.61338 15.78283,-1.84015 5.19017,-1.22677 9.67259,-2.90178 13.44726,-5.02503 z"
         id="path11158"
         style="stroke-width:4.45122"
         sodipodi:nodetypes="csccccccscccssscccsscscsccscccccccscscsscc" />
      <path
         d="m 301.93754,314.1795 h -29.86573 l -3.36352,7.07499 q -1.21782,2.55163 -1.21782,4.00142 0,2.78361 3.71147,3.5375 v 1.62377 h -23.89258 v -1.62377 q 2.20368,-0.34795 3.24753,-1.33381 1.10184,-0.98586 2.55164,-3.88544 l 23.7186,-48.01713 q 1.33381,-2.72561 1.33381,-4.75532 0,-2.37766 -3.24754,-3.71147 v -1.62377 h 25.22639 v 1.62377 q -3.18954,1.27582 -3.18954,3.94344 0,1.91372 1.44979,4.69732 l 24.58848,46.56734 q 2.02971,3.82745 3.18955,4.98728 1.15983,1.10185 3.53749,1.56578 v 1.56578 h -26.50221 v -1.56578 q 3.76946,-0.63791 3.76946,-3.53749 0,-1.79775 -1.44979,-4.46536 z m -4.69733,-9.1047 -10.61248,-20.81902 -10.09056,20.81902 z"
         id="path11160" />
      <path
         d="m 376.63084,328.38747 -23.66062,-40.65218 v 36.76673 q 0,1.79775 0.81189,2.7836 0.81188,0.92787 2.89958,1.56578 v 1.56578 h -21.57291 v -1.62377 q 2.02971,-0.52193 2.84159,-1.50779 0.86988,-0.98585 0.86988,-2.7836 v -53.12039 q 0,-1.79775 -0.81188,-2.72561 -0.81189,-0.98586 -2.89959,-1.56578 v -1.62377 h 27.43007 v 1.62377 q -2.72561,0.86988 -2.72561,3.30553 0,2.37766 1.97172,5.79917 l 16.17969,27.31409 16.29566,-26.90815 q 2.7836,-4.58134 2.7836,-6.49507 0,-2.37766 -2.84159,-3.01557 v -1.62377 h 26.73417 v 1.62377 q -2.0877,0.57992 -2.89958,1.56578 -0.81188,0.92786 -0.81188,2.72561 v 53.12039 q 0,1.79775 0.81188,2.7836 0.81188,0.98586 2.89958,1.56578 v 1.56578 h -22.96471 v -1.62377 q 2.02971,-0.52193 2.8416,-1.50779 0.86987,-0.98585 0.86987,-2.7836 v -36.76673 z"
         id="path11162" />
      <path
         d="m 451.6141,271.38163 v 53.12039 q 0,1.79775 0.81188,2.7836 0.81189,0.92787 2.89959,1.56578 v 1.56578 h -22.96471 v -1.62377 q 2.02971,-0.52193 2.84159,-1.50779 0.86987,-0.98585 0.86987,-2.7836 v -53.12039 q 0,-1.79775 -0.81188,-2.72561 -0.81188,-0.92787 -2.89958,-1.56578 v -1.62377 h 22.96471 v 1.62377 q -2.0877,0.57992 -2.89959,1.56578 -0.81188,0.92786 -0.81188,2.72561 z"
         id="path11164" />
      <path
         d="m 484.6114,287.6193 v 36.88272 q 0,1.79775 0.81188,2.7836 0.86988,0.98586 2.89959,1.56578 v 1.56578 h -21.57291 v -1.62377 q 2.0297,-0.52193 2.84159,-1.50779 0.86987,-0.98585 0.86987,-2.7836 v -53.12039 q 0,-1.79775 -0.81188,-2.72561 -0.81188,-0.92787 -2.89958,-1.56578 v -1.62377 h 24.93643 v 1.62377 q -2.55164,0.63791 -2.55164,2.26168 0,1.3918 1.85573,3.24753 l 34.79502,34.56305 v -35.78087 q 0,-1.79775 -0.81188,-2.72561 -0.81188,-0.98586 -2.89958,-1.56578 v -1.62377 h 21.57291 v 1.62377 q -2.0877,0.57992 -2.89959,1.56578 -0.81188,0.92786 -0.81188,2.72561 v 53.12039 q 0,1.79775 0.81188,2.7836 0.81189,0.92787 2.89959,1.56578 v 1.56578 h -23.25467 v -1.56578 q 2.55163,-0.52193 2.55163,-2.14569 0,-0.81189 -0.6959,-1.68176 -0.6959,-0.86988 -3.18954,-3.42151 z"
         id="path11166" />
      <path
         d="m 613.64292,305.36476 h -14.78788 q -1.85574,0 -2.8416,0.81189 -0.92786,0.81188 -1.50778,2.89958 h -1.56578 v -17.16554 h 1.56578 q 0.57992,2.02971 1.50778,2.84159 0.98586,0.81188 2.8416,0.81188 h 30.90957 v 1.68176 q -2.02971,0.57992 -2.89958,1.68176 -0.81189,1.10185 -0.81189,3.13156 v 13.68604 q 0,1.79774 0.81189,2.7836 0.86987,0.98586 2.89958,1.56577 v 1.33381 q -18.78931,10.38052 -37.46263,10.38052 -16.1217,0 -26.09627,-7.59692 -5.39323,-4.1754 -8.69875,-10.32252 -3.88545,-7.30695 -3.88545,-15.59977 0,-11.48235 7.07499,-20.41307 11.01842,-13.80203 32.59133,-13.80203 9.45265,0 21.57292,4.17541 4.81331,1.62376 5.62519,1.62376 0.98586,0 2.31967,-0.92786 l 1.3918,0.75389 -7.7129,16.35366 -1.3918,-0.6959 q 0,-0.23197 0,-0.34795 0,-2.1457 -4.29138,-4.40737 -7.94487,-4.2334 -17.04956,-4.2334 -10.4965,0 -17.22354,5.74118 -7.07498,6.03114 -7.07498,16.23768 0,9.56863 6.43707,15.3098 6.61106,5.85717 18.55735,5.85717 11.36637,0 19.19525,-4.2334 z"
         id="path11168" />
    </g>
    <g
       aria-label="Has it truly peaked?"
       transform="matrix(0.19724391,0,0,0.19724391,-22.290667,7.8304351)"
       id="text4833-1"
       style="font-size:118.767px;font-family:'Copperplate Gothic Bold';-inkscape-font-specification:'Copperplate Gothic Bold, ';white-space:pre;shape-inside:url(#rect4835-9);display:inline;fill:#0075ff;stroke:#6baaff;stroke-width:2.63126">
      <path
         d="m 210.522,301.04651 h -32.93928 l -7.48093,36.01285 h 10.72846 l -0.63791,2.95758 h -35.14297 l 0.6959,-2.95758 h 10.72847 l 15.30981,-71.85172 h -10.67048 l 0.6959,-2.95757 h 34.91101 l -0.57992,2.95757 h -10.84445 l -6.959,32.8813 h 32.76531 l 7.13298,-32.8813 h -10.72847 l 0.63791,-2.95757 h 34.79502 l -0.57992,2.95757 H 231.515 l -15.19383,71.85172 h 10.67047 l -0.57991,2.95758 h -34.91101 l 0.57992,-2.95758 h 10.72847 z"
         style="font-style:italic;font-family:'Bodoni MT';-inkscape-font-specification:'Bodoni MT, Italic'"
         id="path11209" />
      <path
         d="m 290.78251,294.02952 -7.82888,33.05527 q -1.10184,4.46536 -1.10184,7.01699 0,2.37766 1.68176,2.37766 1.3918,0 3.94343,-3.30552 2.55164,-3.36352 5.21926,-9.91659 h 2.37765 q -3.13155,9.39466 -7.36494,13.80203 -4.2334,4.40737 -8.17683,4.40737 -7.19097,0 -7.77089,-10.72847 h -0.23196 q -5.16127,10.72847 -14.38195,10.72847 -5.68318,0 -9.80059,-5.33524 -4.05942,-5.33523 -4.05942,-12.99014 0,-11.94629 8.3508,-21.05099 8.4088,-9.10469 16.70161,-9.10469 7.88687,0 9.51064,8.64076 h 0.23197 l 1.68176,-7.59691 z m -14.61391,12.12026 q 0,-4.52335 -1.97172,-7.53892 -1.91372,-3.01557 -5.39322,-3.01557 -3.88545,0 -6.3211,3.59549 -2.43565,3.59549 -5.62519,16.93358 -3.13156,13.28009 -3.13156,16.64361 0,5.68319 4.40737,5.68319 3.18955,0 6.49507,-2.49364 3.36352,-2.49365 7.42294,-11.77232 4.11741,-9.27867 4.11741,-18.03542 z"
         style="font-style:italic;font-family:'Bodoni MT';-inkscape-font-specification:'Bodoni MT, Italic'"
         id="path11211" />
      <path
         d="m 314.90706,301.91639 q 0,1.91373 1.44979,3.76946 1.50779,1.85573 7.53892,5.10327 6.08913,3.18954 8.87273,6.66905 2.8416,3.42151 2.8416,7.82887 0,7.13298 -5.97315,11.65634 -5.97314,4.52335 -14.09198,4.52335 -6.49507,0 -10.78646,-2.95758 -4.23339,-2.95758 -4.23339,-6.90101 0,-2.31967 1.44979,-3.88544 1.50779,-1.62377 3.71147,-1.62377 2.14569,0 3.30553,1.44979 1.15983,1.3918 1.15983,3.18954 0,1.33381 -0.6959,2.89959 -0.6959,1.56577 -0.6959,1.97172 0,3.24753 7.13298,3.24753 5.45122,0 8.69875,-2.37766 3.30553,-2.43565 3.30553,-5.50921 0,-4.92929 -9.16269,-9.33666 -11.54034,-5.6252 -11.54034,-14.26596 0,-5.27725 4.81331,-9.8006 4.81331,-4.58134 12.64219,-4.58134 5.91515,0 9.39465,2.20368 3.5375,2.20369 3.5375,5.97315 0,2.14569 -1.50779,3.59548 -1.44979,1.3918 -3.36352,1.3918 -1.91372,0 -3.13155,-1.27581 -1.21782,-1.33381 -1.21782,-3.24754 0,-0.81188 0.40594,-2.0877 0.40594,-1.33381 0.40594,-2.14569 0,-1.79775 -4.75532,-1.79775 -4.40737,0 -6.959,1.79775 -2.55164,1.79774 -2.55164,4.52335 z"
         style="font-style:italic;font-family:'Bodoni MT';-inkscape-font-specification:'Bodoni MT, Italic'"
         id="path11213" />
      <path
         d="m 392.38396,269.09309 q 0,-2.60963 1.91372,-4.46536 1.91373,-1.91373 4.46536,-1.91373 2.66762,0 4.52336,1.85574 1.91372,1.85573 1.91372,4.52335 0,2.66762 -1.91372,4.58134 -1.91373,1.85574 -4.52336,1.85574 -2.55163,0 -4.46536,-1.85574 -1.91372,-1.91372 -1.91372,-4.58134 z m 6.90101,24.24053 -8.69875,35.78088 q -0.92787,4.40737 -0.92787,5.68318 0,2.1457 2.14569,2.1457 2.66762,0 6.14712,-3.82746 3.53749,-3.88544 6.90101,-11.48235 h 2.60963 q -7.59691,19.83316 -20.76103,19.83316 -7.6549,0 -7.6549,-8.00286 0,-2.43565 0.6959,-5.16126 0.6959,-2.72561 1.10184,-4.46536 l 6.43708,-26.44421 h -10.96043 l 0.63791,-2.95758 h 6.72703 q 8.29282,0 15.59977,-1.10184 z"
         style="font-style:italic;font-family:'Bodoni MT';-inkscape-font-specification:'Bodoni MT, Italic'"
         id="path11215" />
      <path
         d="m 435.64576,281.5613 -2.72561,12.87416 h 7.48093 l -0.63791,2.95758 h -7.59691 l -7.71289,32.64932 q -0.92787,3.65348 -0.92787,5.21926 0,2.26167 1.91372,2.26167 4.63934,0 10.20654,-13.918 h 2.37766 q -2.7836,8.75674 -7.19097,13.33809 -4.40737,4.52335 -9.45264,4.52335 -8.17683,0 -8.17683,-8.35081 0,-2.37766 1.3918,-8.40879 l 6.43708,-27.31409 h -7.59692 l 0.57992,-2.95758 h 7.82888 l 2.60963,-11.1924 q 5.91515,-0.058 11.19239,-1.68176 z"
         style="font-style:italic;font-family:'Bodoni MT';-inkscape-font-specification:'Bodoni MT, Italic'"
         id="path11217" />
      <path
         d="m 496.943,281.5613 -2.72561,12.87416 h 7.48093 l -0.6379,2.95758 h -7.59692 l -7.71289,32.64932 q -0.92787,3.65348 -0.92787,5.21926 0,2.26167 1.91373,2.26167 4.63933,0 10.20653,-13.918 h 2.37766 q -2.7836,8.75674 -7.19097,13.33809 -4.40737,4.52335 -9.45264,4.52335 -8.17683,0 -8.17683,-8.35081 0,-2.37766 1.3918,-8.40879 l 6.43708,-27.31409 h -7.59692 l 0.57992,-2.95758 h 7.82888 l 2.60963,-11.1924 q 5.91515,-0.058 11.19239,-1.68176 z"
         style="font-style:italic;font-family:'Bodoni MT';-inkscape-font-specification:'Bodoni MT, Italic'"
         id="path11219" />
      <path
         d="m 528.66447,293.68157 -3.36352,14.38194 0.23196,0.23197 q 7.94487,-15.30981 14.26596,-15.30981 2.37766,0 4.00143,1.56577 1.68176,1.56578 1.68176,3.88545 0,2.31967 -1.62377,3.82745 -1.56578,1.50778 -4.05942,1.50778 -2.31967,0 -3.82745,-1.3918 -1.44979,-1.44979 -1.85573,-1.44979 -1.27582,0 -4.05942,4.00143 -2.78361,4.00143 -4.34938,7.82888 -1.50779,3.82745 -3.36352,11.94629 l -3.65348,15.88972 h -10.96043 l 9.51064,-43.20381 h -8.93072 l 0.75389,-2.95758 h 7.24896 q 7.42294,0 12.35224,-0.75389 z"
         style="font-style:italic;font-family:'Bodoni MT';-inkscape-font-specification:'Bodoni MT, Italic'"
         id="path11221" />
      <path
         d="m 600.86412,294.43546 -7.59691,32.88129 q -0.17397,0.28996 -0.6959,2.72561 -0.52192,2.43565 -0.52192,4.05942 0,0.92787 0.52192,1.79775 0.57992,0.81188 1.3918,0.81188 2.1457,0 4.98729,-3.59549 2.89958,-3.65347 5.33523,-9.62662 h 2.60963 q -3.36352,9.16269 -8.06085,13.57006 -4.63933,4.40737 -9.39465,4.40737 -3.71147,0 -5.62519,-2.7836 -1.85574,-2.8416 -1.85574,-6.37909 0,-1.10184 0.46393,-3.82745 l -0.23196,-0.23197 q -8.98872,13.22211 -18.73132,13.22211 -4.11741,0 -7.24896,-2.72561 -3.07356,-2.7836 -3.07356,-7.42294 0,-1.62377 0.46393,-3.76946 0.52193,-2.14569 0.92787,-4.05942 l 6.08913,-26.44421 h -9.16269 l 0.6959,-2.60963 h 9.7426 q 4.40737,0 7.13298,-0.34795 2.72561,-0.40594 3.5375,-0.40594 l -7.82888,33.63518 q -1.15984,4.34938 -1.15984,6.66905 0,3.53749 3.30553,3.53749 3.36352,0 9.33666,-5.39323 5.97315,-5.39322 8.93072,-17.97742 l 4.63934,-19.71718 z"
         style="font-style:italic;font-family:'Bodoni MT';-inkscape-font-specification:'Bodoni MT, Italic'"
         id="path11223" />
      <path
         d="m 640.99438,261.38019 -15.65776,67.44435 q -0.86987,3.65347 -0.86987,5.27724 0,1.97172 1.44979,1.97172 4.98729,0 9.97457,-13.2801 h 2.60963 q -6.43708,18.67333 -17.33952,18.67333 -3.01557,0 -5.33523,-1.97172 -2.26168,-2.02971 -2.26168,-5.62519 0,-1.39181 0.81188,-5.04528 l 14.61391,-63.6169 h -7.94486 l 0.57992,-2.95757 h 7.82888 q 3.65347,0 11.54034,-0.86988 z"
         style="font-style:italic;font-family:'Bodoni MT';-inkscape-font-specification:'Bodoni MT, Italic'"
         id="path11225" />
      <path
         d="m 668.19246,342.74255 -9.7426,-35.25896 q -1.3918,-5.10327 -2.0877,-6.49507 -0.63791,-1.44979 -1.97172,-1.44979 -3.24754,0 -7.48093,12.23625 h -2.49364 q 2.89958,-9.39466 6.959,-14.09198 4.05942,-4.69733 8.3508,-4.69733 2.8416,0 4.9293,2.02971 2.14569,2.02971 4.11741,9.16269 l 6.66904,24.29852 h 0.23197 q 1.21783,-3.82745 6.37909,-17.04956 5.21925,-13.2801 7.19097,-15.83174 1.97172,-2.60962 4.81331,-2.60962 4.52335,0 4.52335,4.40737 0,2.20368 -1.21782,3.53749 -1.15984,1.33381 -2.60963,1.33381 -0.92787,0 -2.02971,-0.6959 -1.04385,-0.75389 -1.50778,-0.75389 -2.20369,0 -5.21926,7.48093 l -10.09055,25.05241 q -4.9293,12.06227 -14.09198,24.64647 -9.16269,12.64219 -21.05099,12.64219 -3.59549,0 -5.33524,-1.68176 -1.79774,-1.62376 -1.79774,-3.65347 0,-1.68176 1.15983,-2.8416 1.15984,-1.15983 3.07356,-1.15983 3.94344,0 5.50922,3.76946 1.10184,2.37766 2.26167,2.37766 2.66762,0 8.98871,-5.10327 6.3211,-5.04528 13.57006,-19.60119 z"
         style="font-style:italic;font-family:'Bodoni MT';-inkscape-font-specification:'Bodoni MT, Italic'"
         id="path11227" />
      <path
         d="m 752.62842,300.11865 q 5.04528,-7.36495 11.65633,-7.36495 7.017,0 10.78646,4.98729 3.82745,4.98728 3.82745,13.51206 0,11.8883 -8.64076,21.05099 -8.64077,9.16269 -17.16555,9.16269 -6.14712,0 -8.52478,-7.48093 h -0.23196 l -7.36495,32.88129 h 9.97457 l -0.6379,2.95758 h -30.0397 l 0.6379,-2.95758 h 8.98872 l 16.0637,-69.47405 h -10.4965 l 0.75389,-2.95758 h 6.90102 q 9.97457,0 14.84587,-0.98586 l -1.56578,6.43708 z m 0.46393,38.33251 q 3.82746,0 6.37909,-3.4795 2.55164,-3.4795 5.74118,-16.23768 3.18954,-12.75817 3.18954,-16.93357 0,-6.20512 -4.98728,-6.20512 -3.5375,0 -6.3211,2.78361 -2.7836,2.7836 -4.29138,4.98728 -1.50779,2.20369 -4.05942,11.59834 -2.55164,9.39466 -2.55164,12.81617 0,10.67047 6.90101,10.67047 z"
         style="font-style:italic;font-family:'Bodoni MT';-inkscape-font-specification:'Bodoni MT, Italic'"
         id="path11229" />
      <path
         d="m 802.26931,319.95181 q -2.37766,10.67047 -2.37766,12.70018 0,2.43565 1.79774,4.34938 1.79775,1.85573 5.10327,1.85573 10.61248,0 17.91944,-14.14997 h 2.49364 q -3.88544,8.58277 -9.45265,12.70018 -5.5672,4.05942 -11.42436,4.05942 -7.19097,0 -11.94629,-5.91516 -4.69733,-5.97314 -4.69733,-13.80202 0,-10.38051 8.23482,-19.5432 8.29282,-9.22068 17.5135,-9.22068 5.97314,0 9.22068,3.71147 3.24753,3.65347 3.24753,8.06084 0,4.52336 -4.40737,9.8006 -4.40737,5.21925 -21.22496,5.39323 z m 0.57992,-2.60963 q 8.11884,-0.17397 10.78645,-2.20368 2.72561,-2.0877 4.40737,-6.66905 1.68176,-4.58134 1.68176,-7.42294 0,-5.45122 -4.8713,-5.45122 -4.58134,0 -7.017,4.17541 -2.43565,4.1754 -4.98728,17.57148 z"
         style="font-style:italic;font-family:'Bodoni MT';-inkscape-font-specification:'Bodoni MT, Italic'"
         id="path11231" />
      <path
         d="m 881.71791,294.02952 -7.82888,33.05527 q -1.10184,4.46536 -1.10184,7.01699 0,2.37766 1.68176,2.37766 1.3918,0 3.94343,-3.30552 2.55164,-3.36352 5.21926,-9.91659 h 2.37766 q -3.13156,9.39466 -7.36495,13.80203 -4.23339,4.40737 -8.17683,4.40737 -7.19097,0 -7.77089,-10.72847 h -0.23196 q -5.16126,10.72847 -14.38194,10.72847 -5.68319,0 -9.8006,-5.33524 -4.05942,-5.33523 -4.05942,-12.99014 0,-11.94629 8.3508,-21.05099 8.4088,-9.10469 16.70161,-9.10469 7.88687,0 9.51064,8.64076 h 0.23197 l 1.68176,-7.59691 z M 867.104,306.14978 q 0,-4.52335 -1.97171,-7.53892 -1.91373,-3.01557 -5.39323,-3.01557 -3.88545,0 -6.3211,3.59549 -2.43565,3.59549 -5.62519,16.93358 -3.13155,13.28009 -3.13155,16.64361 0,5.68319 4.40736,5.68319 3.18955,0 6.49507,-2.49364 3.36352,-2.49365 7.42294,-11.77232 4.11741,-9.27867 4.11741,-18.03542 z"
         style="font-style:italic;font-family:'Bodoni MT';-inkscape-font-specification:'Bodoni MT, Italic'"
         id="path11233" />
      <path
         d="m 890.99661,340.01694 17.68747,-74.8093 h -8.75675 l 0.57992,-2.95757 h 7.82888 q 4.46536,0 12.35223,-0.86988 l -12.35223,51.32266 0.23197,0.23196 q 1.79774,-2.55163 7.59691,-2.26167 2.89958,-1.97172 7.24896,-10.09056 4.58134,-7.94486 10.84445,-7.94486 3.42151,0 5.85716,2.26167 2.43565,2.20369 2.43565,5.33524 0,2.14569 -1.44979,3.88544 -1.3918,1.68176 -4.11741,1.68176 -2.49364,0 -3.76946,-1.56577 -1.21783,-1.56578 -1.21783,-3.30553 0,-1.62377 1.10184,-2.7836 1.15984,-1.21783 1.15984,-1.73975 0,-0.81189 -1.44979,-0.81189 -3.24754,0 -5.79917,4.11742 -2.49365,4.11741 -2.95758,5.39322 -1.91373,3.18955 -4.75532,6.14712 6.20511,1.79775 8.29281,4.75532 2.1457,2.95758 2.1457,8.00286 l -0.34795,9.10469 q -0.17398,3.36352 1.79774,3.36352 4.58134,0 10.09055,-12.75817 h 2.49365 q -3.18955,8.87273 -8.06085,13.04813 -4.8713,4.1754 -10.03256,4.1754 -7.94487,0 -7.94487,-8.29281 0,-1.68176 0.7539,-4.58134 0.81188,-2.89959 1.21782,-5.10327 0.40594,-2.26168 0.63791,-2.55164 0,-0.17397 0.23197,-1.44979 0.23196,-1.27582 0.23196,-2.0877 0,-3.07356 -3.53749,-3.94344 -3.65348,2.8416 -6.08913,2.8416 -2.37766,0 -2.72561,-2.02971 h -0.23196 l -6.26311,26.27024 z"
         style="font-style:italic;font-family:'Bodoni MT';-inkscape-font-specification:'Bodoni MT, Italic'"
         id="path11235" />
      <path
         d="m 964.41403,319.95181 q -2.37766,10.67047 -2.37766,12.70018 0,2.43565 1.79774,4.34938 1.79774,1.85573 5.10327,1.85573 10.61248,0 17.91943,-14.14997 h 2.49365 q -3.88545,8.58277 -9.45265,12.70018 -5.5672,4.05942 -11.42437,4.05942 -7.19097,0 -11.94629,-5.91516 -4.69732,-5.97314 -4.69732,-13.80202 0,-10.38051 8.23482,-19.5432 8.29281,-9.22068 17.51349,-9.22068 5.97315,0 9.22068,3.71147 3.24754,3.65347 3.24754,8.06084 0,4.52336 -4.40737,9.8006 -4.40737,5.21925 -21.22496,5.39323 z m 0.57991,-2.60963 q 8.11884,-0.17397 10.78646,-2.20368 2.72561,-2.0877 4.40737,-6.66905 1.68176,-4.58134 1.68176,-7.42294 0,-5.45122 -4.87131,-5.45122 -4.58134,0 -7.01699,4.17541 -2.43565,4.1754 -4.98729,17.57148 z"
         style="font-style:italic;font-family:'Bodoni MT';-inkscape-font-specification:'Bodoni MT, Italic'"
         id="path11237" />
      <path
         d="m 1050.8797,261.38019 -15.4258,65.58861 q -1.1019,4.2334 -1.1019,7.13298 0,1.73975 1.7978,1.73975 3.7115,0 8.5248,-11.59834 h 2.7836 q -6.4371,17.22354 -15.5998,17.22354 -6.959,0 -7.5969,-10.38052 h -0.232 q -5.6252,10.38052 -13.918,10.38052 -5.6832,0 -9.9166,-5.5672 -4.17536,-5.56721 -4.17536,-13.10613 0,-11.25039 8.06086,-20.76103 8.1188,-9.51064 16.9915,-9.51064 7.249,0 9.3947,8.06085 h 0.232 l 8.1768,-35.37494 h -10.9024 l 0.6959,-2.95757 h 9.5106 q 6.669,0 12.7002,-0.86988 z m -22.0949,43.84173 q 0,-4.05942 -1.9137,-7.07499 -1.9137,-3.01557 -5.5672,-3.01557 -3.2475,0 -5.5672,2.7836 -2.2617,2.72561 -5.7992,17.22354 -3.4795,14.43993 -3.4795,17.86144 0,2.20368 1.2759,3.82745 1.2758,1.62377 3.2475,1.62377 7.5969,0 12.7002,-11.94629 5.1032,-12.00428 5.1032,-21.28295 z"
         style="font-style:italic;font-family:'Bodoni MT';-inkscape-font-specification:'Bodoni MT, Italic'"
         id="path11239" />
      <path
         d="m 1067.6393,318.27005 h -2.7256 q -0.4059,-13.45408 3.5375,-19.07927 3.9434,-5.62519 17.2235,-12.23625 8.3508,-4.1754 8.3508,-12.23625 0,-4.98728 -3.6534,-8.17683 -3.6535,-3.24753 -9.5687,-3.24753 -5.2192,0 -9.0467,2.37766 -3.7694,2.31967 -3.7694,4.05942 0,0.57991 1.2758,1.10184 l 2.3196,0.81188 q 1.2759,0.46394 2.2037,1.56578 0.9859,1.10184 0.9859,3.01557 0,2.37766 -1.7398,3.94343 -1.6817,1.50779 -3.8274,1.50779 -2.6096,0 -4.5234,-1.97172 -1.9137,-2.02971 -1.9137,-4.75532 0,-5.79917 5.2773,-10.14855 5.2772,-4.34937 13.2801,-4.34937 7.9448,0 12.8741,4.98728 4.9293,4.9293 4.9293,12.46822 0,17.28152 -20.645,25.86429 -6.7271,2.8416 -8.8148,5.39323 -2.0297,2.49365 -2.0297,9.1047 z m -8.0608,16.29567 q 0,-2.8416 2.0297,-4.87131 2.0297,-2.02971 4.8713,-2.02971 2.7836,0 4.8133,2.02971 2.0297,2.02971 2.0297,4.87131 0,2.7836 -2.0297,4.8713 -2.0297,2.02971 -4.8133,2.02971 -2.8416,0 -4.8713,-2.02971 -2.0297,-2.02971 -2.0297,-4.8713 z"
         style="font-style:italic;font-family:'Bodoni MT';-inkscape-font-specification:'Bodoni MT, Italic'"
         id="path11241" />
    </g>
  </g>
</svg>
