<?xml version="1.0" encoding="UTF-8" standalone="no"?>
<!-- Created with Inkscape (http://www.inkscape.org/) -->

<svg
   width="200mm"
   height="100mm"
   viewBox="0 0 200 100"
   version="1.1"
   id="svg4660"
   inkscape:version="1.2.1 (9c6d41e410, 2022-07-14)"
   sodipodi:docname="title.svg"
   xmlns:inkscape="http://www.inkscape.org/namespaces/inkscape"
   xmlns:sodipodi="http://sodipodi.sourceforge.net/DTD/sodipodi-0.dtd"
   xmlns="http://www.w3.org/2000/svg"
   xmlns:svg="http://www.w3.org/2000/svg">
  <sodipodi:namedview
     id="namedview4662"
     pagecolor="#505050"
     bordercolor="#eeeeee"
     borderopacity="1"
     inkscape:showpageshadow="0"
     inkscape:pageopacity="0"
     inkscape:pagecheckerboard="0"
     inkscape:deskcolor="#505050"
     inkscape:document-units="mm"
     showgrid="false"
     inkscape:zoom="0.914906"
     inkscape:cx="242.64788"
     inkscape:cy="168.86981"
     inkscape:window-width="2560"
     inkscape:window-height="1411"
     inkscape:window-x="-9"
     inkscape:window-y="-9"
     inkscape:window-maximized="1"
     inkscape:current-layer="layer1" />
  <defs
     id="defs4657">
    <rect
       x="142.09109"
       y="208.76462"
       width="491.85382"
       height="161.76524"
       id="rect4835" />
    <rect
       x="142.09109"
       y="208.76462"
       width="1001.8201"
       height="202.83739"
       id="rect4835-9" />
  </defs>
  <g
     inkscape:label="Layer 1"
     inkscape:groupmode="layer"
     id="layer1">
    <g
       aria-label="Gaming"
       transform="matrix(0.36934118,0,0,0.36934118,-40.886675,-78.960473)"
       id="text4833"
       style="font-size:118.767px;font-family:'Copperplate Gothic Bold';-inkscape-font-specification:'Copperplate Gothic Bold, ';white-space:pre;shape-inside:url(#rect4835);fill:#0075ff;stroke:#6baaff;stroke-width:3.64724">
      <path
         d="m 215.24909,323.42444 h -23.85118 c -1.46269,0 -2.5715,0.33029 -3.32643,0.99086 -0.70775,0.66056 -1.29755,1.84014 -1.76939,3.53874 h -2.26479 v -22.50646 h 2.26479 c 0.47184,1.74578 1.06164,2.94896 1.76939,3.60953 0.75493,0.61338 1.86374,0.92007 3.32643,0.92007 h 45.86222 v 2.2648 c -1.69861,0.47183 -2.90178,1.08522 -3.60953,1.84016 -0.66057,0.75493 -0.99085,1.86374 -0.99085,3.32643 v 19.817 c 0,1.46269 0.33028,2.5715 0.99085,3.32643 0.66057,0.75493 1.86374,1.36832 3.60953,1.84016 l 398.48825,0.22363 -0.018,11.55248 c 0,0 -416.64838,-0.13579 -418.62038,0.38169 -15.33172,4.02326 -19.4963,5.32363 -33.21425,5.32363 -15.6177,0 -28.35721,-3.70389 -38.21852,-11.11168 -12.40923,-9.34231 -18.61384,-22.31774 -18.61384,-38.92627 0,-15.47615 5.52045,-27.79101 16.56136,-36.94458 10.47471,-8.68173 24.3938,-13.0226 41.75727,-13.0226 5.52045,0 10.71062,0.51901 15.5705,1.55704 4.90707,0.99085 10.47472,2.68946 16.70293,5.09581 3.20846,1.27395 5.49685,1.91092 6.86517,1.91092 0.99085,0 2.14684,-0.54261 3.46797,-1.62783 l 1.98171,1.06164 -11.32401,23.14343 -2.05248,-1.06162 c -0.0472,-1.55705 -0.25953,-2.66586 -0.63698,-3.32643 -0.37746,-0.70775 -1.22676,-1.55705 -2.5479,-2.5479 -2.87818,-2.17043 -7.10109,-4.01058 -12.66872,-5.52045 -5.56764,-1.55705 -10.82859,-2.33558 -15.78284,-2.33558 -10.09723,0 -18.47228,2.831 -25.12514,8.493 -7.50215,6.41693 -11.25323,14.88635 -11.25323,25.40824 0,10.19161 3.65671,18.42511 10.97013,24.7005 6.70003,5.75637 15.52332,8.63455 26.46987,8.63455 5.33172,0 10.59266,-0.61338 15.78283,-1.84015 5.19017,-1.22677 9.67259,-2.90178 13.44726,-5.02503 z"
         id="path11158"
         style="stroke-width:4.45122"
         sodipodi:nodetypes="csccccccscccssscccsscscsccscccccccscscsscc" />
      <path
         d="m 301.93754,314.1795 h -29.86573 l -3.36352,7.07499 q -1.21782,2.55163 -1.21782,4.00142 0,2.78361 3.71147,3.5375 v 1.62377 h -23.89258 v -1.62377 q 2.20368,-0.34795 3.24753,-1.33381 1.10184,-0.98586 2.55164,-3.88544 l 23.7186,-48.01713 q 1.33381,-2.72561 1.33381,-4.75532 0,-2.37766 -3.24754,-3.71147 v -1.62377 h 25.22639 v 1.62377 q -3.18954,1.27582 -3.18954,3.94344 0,1.91372 1.44979,4.69732 l 24.58848,46.56734 q 2.02971,3.82745 3.18955,4.98728 1.15983,1.10185 3.53749,1.56578 v 1.56578 h -26.50221 v -1.56578 q 3.76946,-0.63791 3.76946,-3.53749 0,-1.79775 -1.44979,-4.46536 z m -4.69733,-9.1047 -10.61248,-20.81902 -10.09056,20.81902 z"
         id="path11160" />
      <path
         d="m 376.63084,328.38747 -23.66062,-40.65218 v 36.76673 q 0,1.79775 0.81189,2.7836 0.81188,0.92787 2.89958,1.56578 v 1.56578 h -21.57291 v -1.62377 q 2.02971,-0.52193 2.84159,-1.50779 0.86988,-0.98585 0.86988,-2.7836 v -53.12039 q 0,-1.79775 -0.81188,-2.72561 -0.81189,-0.98586 -2.89959,-1.56578 v -1.62377 h 27.43007 v 1.62377 q -2.72561,0.86988 -2.72561,3.30553 0,2.37766 1.97172,5.79917 l 16.17969,27.31409 16.29566,-26.90815 q 2.7836,-4.58134 2.7836,-6.49507 0,-2.37766 -2.84159,-3.01557 v -1.62377 h 26.73417 v 1.62377 q -2.0877,0.57992 -2.89958,1.56578 -0.81188,0.92786 -0.81188,2.72561 v 53.12039 q 0,1.79775 0.81188,2.7836 0.81188,0.98586 2.89958,1.56578 v 1.56578 h -22.96471 v -1.62377 q 2.02971,-0.52193 2.8416,-1.50779 0.86987,-0.98585 0.86987,-2.7836 v -36.76673 z"
         id="path11162" />
      <path
         d="m 451.6141,271.38163 v 53.12039 q 0,1.79775 0.81188,2.7836 0.81189,0.92787 2.89959,1.56578 v 1.56578 h -22.96471 v -1.62377 q 2.02971,-0.52193 2.84159,-1.50779 0.86987,-0.98585 0.86987,-2.7836 v -53.12039 q 0,-1.79775 -0.81188,-2.72561 -0.81188,-0.92787 -2.89958,-1.56578 v -1.62377 h 22.96471 v 1.62377 q -2.0877,0.57992 -2.89959,1.56578 -0.81188,0.92786 -0.81188,2.72561 z"
         id="path11164" />
      <path
         d="m 484.6114,287.6193 v 36.88272 q 0,1.79775 0.81188,2.7836 0.86988,0.98586 2.89959,1.56578 v 1.56578 h -21.57291 v -1.62377 q 2.0297,-0.52193 2.84159,-1.50779 0.86987,-0.98585 0.86987,-2.7836 v -53.12039 q 0,-1.79775 -0.81188,-2.72561 -0.81188,-0.92787 -2.89958,-1.56578 v -1.62377 h 24.93643 v 1.62377 q -2.55164,0.63791 -2.55164,2.26168 0,1.3918 1.85573,3.24753 l 34.79502,34.56305 v -35.78087 q 0,-1.79775 -0.81188,-2.72561 -0.81188,-0.98586 -2.89958,-1.56578 v -1.62377 h 21.57291 v 1.62377 q -2.0877,0.57992 -2.89959,1.56578 -0.81188,0.92786 -0.81188,2.72561 v 53.12039 q 0,1.79775 0.81188,2.7836 0.81189,0.92787 2.89959,1.56578 v 1.56578 h -23.25467 v -1.56578 q 2.55163,-0.52193 2.55163,-2.14569 0,-0.81189 -0.6959,-1.68176 -0.6959,-0.86988 -3.18954,-3.42151 z"
         id="path11166" />
      <path
         d="m 613.64292,305.36476 h -14.78788 q -1.85574,0 -2.8416,0.81189 -0.92786,0.81188 -1.50778,2.89958 h -1.56578 v -17.16554 h 1.56578 q 0.57992,2.02971 1.50778,2.84159 0.98586,0.81188 2.8416,0.81188 h 30.90957 v 1.68176 q -2.02971,0.57992 -2.89958,1.68176 -0.81189,1.10185 -0.81189,3.13156 v 13.68604 q 0,1.79774 0.81189,2.7836 0.86987,0.98586 2.89958,1.56577 v 1.33381 q -18.78931,10.38052 -37.46263,10.38052 -16.1217,0 -26.09627,-7.59692 -5.39323,-4.1754 -8.69875,-10.32252 -3.88545,-7.30695 -3.88545,-15.59977 0,-11.48235 7.07499,-20.41307 11.01842,-13.80203 32.59133,-13.80203 9.45265,0 21.57292,4.17541 4.81331,1.62376 5.62519,1.62376 0.98586,0 2.31967,-0.92786 l 1.3918,0.75389 -7.7129,16.35366 -1.3918,-0.6959 q 0,-0.23197 0,-0.34795 0,-2.1457 -4.29138,-4.40737 -7.94487,-4.2334 -17.04956,-4.2334 -10.4965,0 -17.22354,5.74118 -7.07498,6.03114 -7.07498,16.23768 0,9.56863 6.43707,15.3098 6.61106,5.85717 18.55735,5.85717 11.36637,0 19.19525,-4.2334 z"
         id="path11168" />
    </g>
    <text
       xml:space="preserve"
       transform="matrix(0.19724391,0,0,0.19724391,-22.290667,7.8304351)"
       id="text4833-1"
       style="font-size:118.767px;font-family:'Copperplate Gothic Bold';-inkscape-font-specification:'Copperplate Gothic Bold, ';white-space:pre;shape-inside:url(#rect4835-9);fill:#0075ff;fill-opacity:1;stroke:#6baaff;stroke-width:3.64724;stroke-opacity:1"><tspan
         x="142.0918"
         y="340.01694"
         id="tspan11188"><tspan
           style="font-style:italic;font-family:'Bodoni MT';-inkscape-font-specification:'Bodoni MT, Italic'"
           id="tspan11186">Has it truly peaked?</tspan></tspan></text>
  </g>
</svg>
